<svg width="28" height="28" viewBox="0 0 28 28" fill="none" xmlns="http://www.w3.org/2000/svg">
<path fill-rule="evenodd" clip-rule="evenodd" d="M14.0304 2.33331C7.60321 2.33331 2.39404 7.54248 2.39404 13.9696C2.39404 19.11 5.72721 23.4721 10.3519 25.0121C10.934 25.1171 11.144 24.759 11.144 24.451C11.144 24.1745 11.1347 23.4418 11.1312 22.4723C7.89371 23.1746 7.21004 20.9113 7.21004 20.9113C6.68271 19.5673 5.91854 19.2091 5.91854 19.2091C4.86271 18.487 5.99904 18.5033 5.99904 18.5033C7.16804 18.585 7.78054 19.7026 7.78054 19.7026C8.81888 21.4806 10.5059 20.9673 11.1662 20.6698C11.2724 19.9173 11.5757 19.404 11.907 19.1135C9.32404 18.8206 6.60804 17.822 6.60804 13.3618C6.60804 12.0936 7.06188 11.053 7.80271 10.241C7.68488 9.94581 7.28238 8.76165 7.91821 7.16098C7.91821 7.16098 8.89471 6.84715 11.1172 8.35215C12.0482 8.09431 13.041 7.96481 14.0292 7.96015C15.0197 7.96481 16.0137 8.09431 16.9412 8.35215C19.1649 6.84598 20.1402 7.16098 20.1402 7.16098C20.776 8.76165 20.377 9.94581 20.2557 10.241C21.0024 11.053 21.4504 12.0925 21.4504 13.3618C21.4504 17.8336 18.732 18.816 16.1397 19.1041C16.5539 19.4635 16.9272 20.1728 16.9272 21.2578C16.9272 22.8141 16.9132 24.0695 16.9132 24.451C16.9132 24.7625 17.1209 25.1241 17.7147 25.0098C22.337 23.4675 25.6667 19.1088 25.6667 13.9696C25.6667 7.54248 20.4575 2.33331 14.0304 2.33331Z" fill="white"/>
</svg>
