<svg width="28" height="28" viewBox="0 0 28 28" fill="none" xmlns="http://www.w3.org/2000/svg">
<path d="M23.3333 3.5H4.66667C4.0215 3.5 3.5 4.02267 3.5 4.66667V23.3333C3.5 23.9773 4.0215 24.5 4.66667 24.5H23.3333C23.9785 24.5 24.5 23.9773 24.5 23.3333V4.66667C24.5 4.02267 23.9785 3.5 23.3333 3.5ZM9.72883 21.3932H6.6115V11.3715H9.72883V21.3932ZM8.17017 10.003C7.1715 10.003 6.36417 9.19333 6.36417 8.197C6.36417 7.20067 7.17033 6.391 8.17017 6.391C9.1665 6.391 9.97617 7.1995 9.97617 8.197C9.97617 9.1945 9.1665 10.003 8.17017 10.003ZM21.3943 21.3932H18.2805V16.52C18.2805 15.358 18.2595 13.8635 16.6612 13.8635C15.0395 13.8635 14.7933 15.1305 14.7933 16.4383V21.3943H11.6818V11.3727H14.6685V12.7423H14.7117C15.1258 11.9548 16.1432 11.1242 17.6563 11.1242C20.811 11.1242 21.3932 13.1985 21.3932 15.8982V21.3932H21.3943Z" fill="white"/>
</svg>
