<svg width="706" height="405" viewBox="0 0 706 405" fill="none" xmlns="http://www.w3.org/2000/svg">
<g clip-path="url(#clip0)">
<path opacity="0.1" d="M651.87 320.256C651.083 322.083 650.299 323.885 649.517 325.664C648.297 328.426 647.092 331.135 645.904 333.791C645.375 334.967 644.846 336.122 644.331 337.277C638.5 350.117 633.056 361.474 628.432 370.814C624.236 379.277 618.007 386.368 610.395 391.344C602.784 396.32 594.071 398.997 585.17 399.097L482.353 400.303H481.268L472.455 400.405L464.915 400.493L441.796 400.763H440.861L429.091 400.902H428.731L356.187 401.75L291.433 402.481L283.9 402.568L237.119 403.116H237.065L206.725 403.467H206.4L110.465 404.585L81.7655 404.921C75.6411 404.996 69.5424 404.054 63.6836 402.13C53.4882 398.81 44.3254 392.556 37.1812 384.042C24.8554 369.404 15.8721 352.324 9.83803 333.791C8.96569 331.116 8.15211 328.407 7.39728 325.664C-13.4915 249.549 11.9737 151.348 57.8055 85.6324C59.7265 82.8845 61.6791 80.2048 63.6633 77.5933L63.7108 77.5349C77.8061 58.8843 93.6099 43.3031 110.444 32.2239C140.276 12.5574 173.327 7.01779 205.837 23.5271C233.343 37.5004 259.025 44.0705 283.92 45.8537C286.436 46.0291 288.951 46.1606 291.453 46.241C348.56 48.1777 402.08 25.9973 464.929 11.6804C467.431 11.1104 469.939 10.5477 472.468 10.0142C517.303 0.396535 567.04 -4.67537 626.188 5.98733C632.333 7.06943 638.397 8.63265 644.331 10.6646C646.939 11.5708 649.452 12.5452 651.87 13.5879C680.101 25.968 695.498 48.8428 702.041 77.5056C702.66 80.1658 703.196 82.8723 703.648 85.6251C715.248 154.571 681.274 252.37 651.87 320.256Z" fill="#4EAC77"/>
<g opacity="0.1">
<path opacity="0.1" d="M110.444 32.222V404.664L81.7448 405C75.6203 405.075 69.5217 404.133 63.6629 402.208V77.533H63.7104C77.8057 58.8605 93.6095 43.2793 110.444 32.222Z" fill="#4EAC77"/>
<path opacity="0.1" d="M703.681 85.6305H57.8051C59.726 82.8826 61.6786 80.2029 63.6628 77.5915V77.533H702.075C702.694 80.1786 703.229 82.8778 703.681 85.6305Z" fill="#4EAC77"/>
<path opacity="0.1" d="M651.87 13.5933V325.655H649.517C648.297 328.417 647.092 331.126 645.903 333.781C645.375 334.958 644.846 336.113 644.33 337.267V10.6408C646.938 11.547 649.452 12.5312 651.87 13.5933Z" fill="#4EAC77"/>
<path opacity="0.1" d="M472.468 9.99036V400.432L464.929 400.52V11.6566C467.43 11.0866 469.939 10.5239 472.468 9.99036Z" fill="#4EAC77"/>
<path opacity="0.1" d="M291.453 46.2172V402.552L283.92 402.639V45.8299C286.435 46.0053 288.951 46.1076 291.453 46.2172Z" fill="#4EAC77"/>
<path opacity="0.1" d="M649.517 325.662C648.297 328.424 647.092 331.133 645.903 333.789H9.8376C8.96526 331.114 8.15167 328.405 7.39685 325.662H649.517Z" fill="#4EAC77"/>
</g>
<path d="M156.344 194.275H143.462V236.414H156.344V194.275Z" fill="#3F3D56"/>
<path d="M503.018 192.082H490.136V236.662H503.018V192.082Z" fill="#3F3D56"/>
<path d="M585.169 390.004V399.504L482.17 400.527L481.072 400.549L441.925 400.937L440.989 400.951L429.09 401.061H428.738L356.207 401.784L237.146 402.976H237.044L206.772 403.283L206.447 403.29L71.9343 404.62V393.658L103.562 373.195L167.022 372.625L168.378 372.617L168.825 372.61L170.181 372.588L200.65 372.318L202.013 372.31L202.447 372.303L203.802 372.296L213.572 372.208L213.83 372.201L237.932 371.981H238.129L426.202 370.271L430.806 370.235H431.267L434.779 370.198L460.305 369.972L461.661 369.95L462.915 369.935H463.566L471.505 369.869L473.078 369.847L475.187 369.833L481.797 369.767L492.285 369.672L493.641 369.657L496.001 369.643H496.441L547.094 369.175L585.169 390.004Z" fill="#65617D"/>
<path opacity="0.2" d="M585.169 390.004V399.504L482.17 400.527L481.072 400.549L441.925 400.937L440.989 400.951L429.09 401.061H428.738L356.207 401.784L237.146 402.976H237.044L206.772 403.283L206.447 403.29L71.9343 404.62V393.658L103.562 373.195L167.022 372.625L168.378 372.617L168.825 372.61L170.181 372.588L200.65 372.318L202.013 372.31L202.447 372.303L203.802 372.296L213.572 372.208L213.83 372.201L237.932 371.981H238.129L426.202 370.271L430.806 370.235H431.267L434.779 370.198L460.305 369.972L461.661 369.95L462.915 369.935H463.566L471.505 369.869L473.078 369.847L475.187 369.833L481.797 369.767L492.285 369.672L493.641 369.657L496.001 369.643H496.441L547.094 369.175L585.169 390.004Z" fill="black"/>
<path d="M200.752 353.47V371.368C200.752 372.215 200.529 373.046 200.109 373.762C199.689 374.479 199.089 375.053 198.379 375.416C197.85 375.693 197.271 375.842 196.684 375.855L173.022 376.396C172.39 376.412 171.763 376.269 171.191 375.979C170.469 375.622 169.856 375.048 169.427 374.327C168.998 373.605 168.77 372.766 168.771 371.908V353.47H200.752Z" fill="#3F3D56"/>
<path opacity="0.1" d="M200.752 353.47V371.368C200.752 372.215 200.529 373.046 200.109 373.762C199.689 374.479 199.089 375.053 198.379 375.416C197.85 375.693 197.271 375.842 196.684 375.855L173.022 376.396C172.39 376.412 171.763 376.269 171.191 375.979C170.469 375.622 169.856 375.048 169.427 374.327C168.998 373.605 168.77 372.766 168.771 371.908V353.47H200.752Z" fill="black"/>
<path d="M202.108 353.47V371.368C202.108 372.215 201.885 373.046 201.465 373.762C201.045 374.479 200.445 375.053 199.735 375.416C199.206 375.693 198.627 375.842 198.04 375.855L174.378 376.396C173.746 376.412 173.119 376.269 172.547 375.979C171.824 375.622 171.212 375.048 170.783 374.327C170.354 373.605 170.126 372.766 170.127 371.908V353.47H202.108Z" fill="#3F3D56"/>
<path d="M493.641 353.47H461.661V376.491H493.641V353.47Z" fill="#3F3D56"/>
<path opacity="0.1" d="M493.641 353.47H461.661V376.491H493.641V353.47Z" fill="black"/>
<path d="M492.285 353.47H460.305V376.491H492.285V353.47Z" fill="#3F3D56"/>
<path opacity="0.1" d="M156.344 194.267V198.455L143.462 198.097V194.267H156.344Z" fill="black"/>
<path d="M241.132 76.2979L225.654 196.153C225.556 196.918 225.199 197.618 224.653 198.118C224.106 198.619 223.408 198.884 222.691 198.864L98.7554 195.4L96.4028 195.334C95.9932 195.324 95.5902 195.22 95.2201 195.031C94.8501 194.841 94.5213 194.57 94.2552 194.234C93.989 193.898 93.7916 193.505 93.6756 193.082C93.5597 192.658 93.5279 192.213 93.5824 191.775L110.959 66.3076C111.071 65.5304 111.449 64.8267 112.019 64.3356C112.589 63.8444 113.309 63.6014 114.037 63.6547L238.42 72.7315C238.822 72.7565 239.214 72.871 239.572 73.0676C239.93 73.2643 240.247 73.5388 240.502 73.8739C240.756 74.2091 240.944 74.5975 241.053 75.0147C241.161 75.4319 241.188 75.8688 241.132 76.2979V76.2979Z" fill="#65617D"/>
<path d="M119.278 72.4684L106.173 183.064L220.074 186.959L234.081 80.259L119.278 72.4684Z" fill="#4EAC77"/>
<path d="M395.903 70.7583H264.367C262.371 70.7583 260.753 72.5022 260.753 74.6536V193.536C260.753 195.688 262.371 197.432 264.367 197.432H395.903C397.899 197.432 399.517 195.688 399.517 193.536V74.6536C399.517 72.5022 397.899 70.7583 395.903 70.7583Z" fill="#65617D"/>
<path d="M393.408 79.287H267.303V184.767H393.408V79.287Z" fill="#4EAC77"/>
<path opacity="0.1" d="M503.018 192.075V194.845L490.136 195.13V192.075H503.018Z" fill="black"/>
<path d="M561.142 189.736C561.16 190.039 561.121 190.343 561.028 190.629C560.935 190.915 560.789 191.178 560.599 191.402C560.409 191.626 560.179 191.806 559.922 191.932C559.666 192.058 559.389 192.126 559.108 192.133L432.189 194.962C431.661 194.973 431.15 194.77 430.756 194.391C430.362 194.013 430.116 193.489 430.067 192.923L419.158 70.6706C419.131 70.3672 419.161 70.0612 419.247 69.771C419.333 69.4808 419.473 69.2124 419.658 68.9821C419.843 68.7518 420.07 68.5644 420.324 68.4313C420.578 68.2982 420.855 68.2221 421.138 68.2077L547.094 61.4549L548.45 61.3818C548.989 61.3512 549.518 61.5475 549.925 61.9293C550.332 62.3111 550.586 62.8485 550.633 63.4281L561.142 189.736Z" fill="#65617D"/>
<path d="M426.406 75.3917L541.439 69.2966L551.155 180.382L437.03 183.305L426.406 75.3917Z" fill="#4EAC77"/>
<path opacity="0.1" d="M561.142 189.736C561.16 190.039 561.121 190.343 561.028 190.629C560.935 190.915 560.789 191.178 560.599 191.402C560.409 191.626 560.179 191.806 559.922 191.932C559.666 192.058 559.389 192.126 559.108 192.133L547.094 61.4549L548.45 61.3818C548.989 61.3512 549.518 61.5475 549.925 61.9293C550.332 62.3111 550.586 62.8485 550.633 63.4281L561.142 189.736Z" fill="black"/>
<path opacity="0.1" d="M114.058 63.6473L98.7554 195.4L96.4028 195.334C95.9932 195.324 95.5902 195.22 95.2201 195.031C94.8501 194.841 94.5213 194.57 94.2552 194.234C93.989 193.898 93.7916 193.505 93.6756 193.082C93.5597 192.658 93.5279 192.213 93.5824 191.775L110.959 66.3075C111.07 65.525 111.45 64.8163 112.025 64.3231C112.599 63.8299 113.325 63.5886 114.058 63.6473V63.6473Z" fill="black"/>
<path opacity="0.1" d="M156.344 223.931H143.462V236.414H156.344V223.931Z" fill="black"/>
<path opacity="0.1" d="M202.108 353.462V357.095L170.127 358.015V353.462H202.108Z" fill="black"/>
<path d="M258.55 228.28V351.204C258.542 351.954 258.266 352.673 257.78 353.21C257.294 353.747 256.635 354.063 255.94 354.091L126.004 357.818H125.97C125.262 357.809 124.586 357.501 124.086 356.962C123.585 356.423 123.3 355.694 123.292 354.931V228.28C123.3 227.517 123.585 226.788 124.086 226.249C124.586 225.71 125.262 225.403 125.97 225.393H255.872C256.579 225.403 257.255 225.71 257.756 226.249C258.256 226.788 258.541 227.517 258.55 228.28V228.28Z" fill="#65617D"/>
<path opacity="0.1" d="M126.004 225.393V357.818H125.97C125.262 357.809 124.586 357.501 124.086 356.962C123.585 356.423 123.3 355.694 123.292 354.931V228.28C123.3 227.517 123.585 226.788 124.086 226.249C124.586 225.71 125.262 225.403 125.97 225.393H126.004Z" fill="black"/>
<path d="M131.936 233.242H252.278V341.587L131.936 344.51V233.242Z" fill="#D4DFEC"/>
<path opacity="0.1" d="M503.018 223.931H490.136V236.662H503.018V223.931Z" fill="black"/>
<path opacity="0.1" d="M492.285 353.462V358.147L460.305 357.226V353.462H492.285Z" fill="black"/>
<path d="M534.49 228.28V354.931C534.481 355.7 534.191 356.434 533.684 356.975C533.176 357.515 532.491 357.818 531.778 357.818V357.818L401.815 354.091C401.119 354.063 400.46 353.747 399.974 353.21C399.489 352.673 399.213 351.954 399.205 351.204V228.28C399.214 227.517 399.498 226.788 399.999 226.249C400.499 225.71 401.175 225.403 401.883 225.393H531.785C532.497 225.395 533.18 225.699 533.686 226.239C534.192 226.779 534.481 227.512 534.49 228.28V228.28Z" fill="#65617D"/>
<path opacity="0.1" d="M534.49 228.28V354.931C534.481 355.7 534.191 356.434 533.684 356.975C533.176 357.515 532.491 357.818 531.778 357.818V357.818V225.393C532.491 225.393 533.176 225.696 533.684 226.236C534.191 226.777 534.481 227.511 534.49 228.28Z" fill="black"/>
<path d="M525.846 233.242H405.503V341.587L525.846 344.51V233.242Z" fill="#D4DFEC"/>
<path d="M395.842 228.28V351.204C395.834 351.954 395.558 352.673 395.072 353.21C394.586 353.747 393.927 354.063 393.232 354.091L263.296 357.818C262.582 357.818 261.898 357.515 261.39 356.975C260.882 356.434 260.593 355.7 260.584 354.931V228.28C260.593 227.517 260.878 226.788 261.378 226.249C261.878 225.71 262.554 225.403 263.262 225.393H393.164C393.871 225.403 394.547 225.71 395.048 226.249C395.548 226.788 395.833 227.517 395.842 228.28V228.28Z" fill="#65617D"/>
<path d="M269.228 233.242H389.57V341.587L269.228 344.51V233.242Z" fill="#D4DFEC"/>
<path opacity="0.1" d="M585.169 390.004V399.504L482.17 400.527L481.072 400.549L441.925 400.937L440.989 400.951L429.09 401.061H428.738L356.207 401.784L237.146 402.976H237.044L206.772 403.283L206.447 403.29L71.9343 404.62V393.658L209.233 392.686H209.559L237.349 392.481H237.478L429.402 391.114H429.599L429.714 391.107H430.033L433.28 391.085H434.27L484.773 390.72L487.756 390.705L488.421 390.698L585.169 390.004Z" fill="black"/>
<path d="M330.355 236.414C349.575 236.414 365.156 219.619 365.156 198.901C365.156 178.183 349.575 161.388 330.355 161.388C311.135 161.388 295.554 178.183 295.554 198.901C295.554 219.619 311.135 236.414 330.355 236.414Z" fill="#FBBEBE"/>
<path d="M365.163 275.637C365.163 275.637 297.704 284.407 304.144 275.637C306.477 272.465 307.121 263.067 306.992 252.36C306.951 249.108 306.843 245.739 306.687 242.385C305.941 226.307 304.144 210.594 304.144 210.594C304.144 210.594 363.129 180.63 356.349 204.382C353.637 213.978 354.526 227.454 356.587 240.104C357.19 243.795 357.888 247.413 358.621 250.848C360.408 259.226 362.591 267.5 365.163 275.637V275.637Z" fill="#FBBEBE"/>
<path opacity="0.1" d="M365.163 275.637C365.163 275.637 297.704 284.407 304.144 275.637C306.477 272.465 307.121 263.067 306.992 252.36C317.277 247.625 330.362 251.155 330.362 251.155C344.139 248.195 352.973 248.772 358.621 250.848C360.408 259.226 362.591 267.5 365.163 275.637V275.637Z" fill="black"/>
<path d="M237.119 403.801V403.188L356.187 401.792L428.731 401.061H428.934L428.86 402.142L428.961 401.061H429.09V400.937L430.019 391.107L430.372 387.387L430.48 386.225L430.575 385.253L434.765 370.191L438.955 355.151L442.481 342.485L447.864 323.133C447.864 323.133 444.813 315.46 443.118 313.267C441.423 311.075 439.728 296.093 439.728 296.093C439.728 296.093 425.26 281.235 418.934 279.525C416.283 278.794 411.049 277.822 405.49 276.602C403.408 276.149 401.273 275.666 399.218 275.14C398.059 274.855 396.92 274.555 395.828 274.256C393.704 273.684 391.61 272.986 389.557 272.166C388.48 271.744 387.456 271.182 386.506 270.492C381.523 266.553 369.034 266.107 368.553 266.107C368.552 266.09 368.552 266.073 368.553 266.056V265.99C368.57 265.684 368.57 265.376 368.553 265.069C368.553 264.777 368.553 264.434 368.492 264.046C368.492 263.929 368.492 263.805 368.445 263.681C368.411 263.418 368.37 263.14 368.309 262.848C368.288 262.717 368.261 262.588 368.228 262.46C368.031 261.58 367.747 260.725 367.38 259.91C367.333 259.793 367.272 259.669 367.217 259.552C366.885 258.877 366.499 258.234 366.065 257.63C365.977 257.505 365.882 257.374 365.78 257.25C365.225 256.544 364.607 255.898 363.936 255.32C363.753 255.167 363.563 255.006 363.366 254.86C363.257 254.764 363.141 254.676 363.021 254.597L362.417 254.173L361.854 253.822C361.36 253.53 360.837 253.245 360.268 252.974C360.092 252.887 359.902 252.806 359.712 252.726C359.522 252.645 359.224 252.521 358.973 252.419H358.932L358.424 252.2C358.037 252.061 357.644 251.936 357.231 251.812L356.6 251.637L355.922 251.469L355.244 251.315C354.566 251.169 353.841 251.038 353.081 250.935L352.308 250.833L351.515 250.745L350.695 250.672L349.529 250.599L348.173 250.548C342.192 250.547 336.229 251.231 330.382 252.587C326.321 251.613 322.161 251.2 318.002 251.359H317.413L316.735 251.403H316.301L315.426 251.491C315.134 251.491 314.836 251.556 314.545 251.6C314.253 251.644 313.948 251.681 313.656 251.732L313.209 251.812C312.768 251.893 312.321 251.98 311.853 252.083C311.704 252.112 311.555 252.148 311.406 252.192C310.816 252.331 310.226 252.499 309.643 252.689C309.351 252.777 309.06 252.879 308.768 252.989C308.619 253.033 308.477 253.091 308.334 253.15L307.9 253.318L307.473 253.5L306.965 253.72C306.707 253.837 306.456 253.961 306.205 254.092C306.063 254.158 305.921 254.231 305.785 254.312C305.649 254.392 305.507 254.458 305.378 254.538C303.845 255.392 302.429 256.469 301.168 257.739L300.822 258.097L300.483 258.47C300.368 258.594 300.259 258.726 300.151 258.857C299.709 259.378 299.297 259.927 298.917 260.502C298.809 260.655 298.707 260.809 298.605 260.969C298.175 261.653 297.785 262.366 297.439 263.103C297.351 263.279 297.27 263.462 297.188 263.637C296.635 264.872 296.181 266.155 295.832 267.474C295.706 267.961 295.59 268.448 295.486 268.935C295.486 268.935 281.134 275.761 269.228 280.702C266.062 282.017 263.079 283.208 260.584 284.107C259.858 284.37 259.18 284.612 258.55 284.838C257.182 285.371 255.759 285.725 254.312 285.891C253.631 285.903 252.951 285.971 252.278 286.095C246.807 287.053 237.431 291.211 236.407 295.384C236.324 295.717 236.301 296.064 236.339 296.407C236.339 296.407 236.339 296.458 236.339 296.487C237.017 301.603 232.271 300.872 232.271 300.872C232.271 300.872 230.576 314.393 228.203 318.047C226.488 320.678 225.315 326.546 225.166 330.975C225.081 332.355 225.181 333.741 225.464 335.089C225.464 335.126 225.464 335.163 225.464 335.192C225.735 336.171 225.084 338.846 223.979 342.273C222.779 346.037 221.03 350.715 219.349 355.129C216.813 361.794 214.427 367.845 214.277 369.175C214.216 369.767 214.04 370.827 213.796 372.193C212.806 377.762 210.609 388.366 209.525 392.656C208.718 395.857 207.545 400.242 206.738 403.253C206.738 403.341 206.691 403.429 206.67 403.509L237.064 403.188V403.801H237.159H237.119Z" fill="#4EAC77"/>
<path opacity="0.1" d="M248.211 317.659C248.211 317.659 286.856 339.219 300.754 336.661L248.211 317.659Z" fill="black"/>
<path opacity="0.1" d="M326.857 308.89C326.857 308.89 364.485 322.044 377.028 323.871C389.571 325.698 326.857 308.89 326.857 308.89Z" fill="black"/>
<path opacity="0.1" d="M368.594 266.56C348.932 270.463 311.914 269.622 295.914 269.03C301.778 246.375 330.376 254.078 330.376 254.078C365.773 246.463 368.485 262.263 368.594 266.56Z" fill="black"/>
<path d="M368.594 265.099C348.932 269.001 311.914 268.161 295.914 267.569C301.778 244.913 330.376 252.616 330.376 252.616C365.773 245.001 368.485 260.801 368.594 265.099Z" fill="#4EAC77"/>
<path d="M472.963 364.98C472.963 364.98 496.123 361.143 496.577 372.106C497.031 383.068 484.767 390.727 484.767 390.727L472.963 364.98Z" fill="#FBBEBE"/>
<path opacity="0.1" d="M356.587 240.104C355.59 240.584 354.572 241.009 353.536 241.376C346.227 244.095 338.857 246.835 331.162 247.829C323.467 248.823 315.392 247.946 308.68 243.81C307.975 243.381 307.296 242.905 306.646 242.385C305.9 226.307 304.104 210.594 304.104 210.594C304.104 210.594 363.088 180.63 356.309 204.382C353.61 213.978 354.525 227.454 356.587 240.104Z" fill="black"/>
<path d="M320.809 140.267C319.842 140.542 318.828 140.57 317.848 140.348C316.869 140.126 315.951 139.66 315.168 138.988L316.579 141.1C315.748 141.203 314.906 141.11 314.112 140.826C313.318 140.542 312.591 140.074 311.982 139.456C311.854 141.346 311.927 143.247 312.199 145.119C309.865 145.241 307.568 144.464 305.717 142.927C305.681 143.586 305.833 144.242 306.153 144.805C306.473 145.368 306.946 145.812 307.507 146.077C305.163 145.775 302.797 146.403 300.851 147.843C298.905 149.283 297.512 151.438 296.931 153.904L300.47 154.255C297.688 154.895 295.192 156.537 293.392 158.91C292.307 160.372 291.48 162.243 291.954 164.026C292.429 165.809 294.72 166.949 295.968 165.677C294.193 167.961 292.904 170.634 292.189 173.512C291.475 176.389 291.353 179.4 291.832 182.333C292.154 183.583 292.26 184.886 292.144 186.177C291.92 187.383 291.215 188.428 290.863 189.605C290.185 191.739 290.829 194.055 291.432 196.182L294.612 207.451C295.765 211.522 296.91 215.6 298.415 219.539C299.481 222.03 300.387 224.596 301.127 227.22C301.982 230.757 302.016 234.631 303.839 237.722C305.089 239.667 306.76 241.255 308.707 242.348C315.413 246.485 323.514 247.362 331.189 246.368C338.864 245.374 346.227 242.633 353.529 239.915C355.151 239.388 356.708 238.652 358.166 237.722C363.217 234.156 364.343 226.862 365.285 220.438C366.336 213.276 367.739 206.129 370.228 199.39C371.706 195.378 373.618 191.307 373.292 187.01C372.879 181.302 368.689 176.676 367.651 171.064C367.304 169.188 367.32 167.254 367.699 165.385C368.02 164.272 368.201 163.116 368.234 161.95C368.119 159.597 366.329 157.785 364.648 156.272C361 152.988 357.235 149.884 353.353 146.961C353.156 145.499 355 144.871 355.834 143.716C357.014 142.087 355.793 139.499 354.003 138.739C352.214 137.979 350.207 138.476 348.342 138.981C348.464 137.952 348.274 136.908 347.801 136.005C347.328 135.102 346.598 134.388 345.718 133.968C344.838 133.549 343.856 133.446 342.918 133.677C341.98 133.907 341.136 134.457 340.512 135.246C340.016 134.022 339.225 132.964 338.221 132.183C337.217 131.401 336.036 130.924 334.803 130.803C330.308 130.423 330.22 134.128 327.345 136.167C324.47 138.206 322.097 135.516 319.887 133.558C319.481 134.665 319.353 135.868 319.514 137.045C319.676 138.223 320.123 139.334 320.809 140.267V140.267Z" fill="#3F3D56"/>
<path d="M490.136 386.905C490.136 386.905 489.533 388.454 488.421 390.698C486.739 394.15 484.691 397.379 482.319 400.323L482.136 400.535H481.038L441.891 400.922H440.955L440.84 400.776L433.246 391.063L430.385 387.402L430.27 387.248L430.026 386.941L429.89 386.766L429.714 386.539L424.148 379.421L426.182 370.286L429.646 354.895L429.734 354.522L430.412 351.599L430.894 349.406L432.507 342.259L438.04 317.667L447.871 323.148L458.237 342.88L463.803 353.477H466.854C467.43 353.477 468.753 354.676 470.081 356.057C470.556 356.546 471.031 357.065 471.437 357.518C472.644 358.863 473.6 360.018 473.6 360.018C473.6 360.018 478.543 360.135 479.871 364.33C479.94 364.533 479.997 364.74 480.041 364.951C480.482 366.6 481.056 368.204 481.756 369.745C482.631 371.799 483.729 374.13 484.841 376.461C486.909 380.737 489.011 384.807 489.784 386.284L489.879 386.466L490.136 386.905Z" fill="#4EAC77"/>
<path opacity="0.1" d="M431.897 353.908L431.83 354.953V355.026L431.714 356.707L430.813 370.235L429.721 386.532L429.409 391.122L428.731 400.944V401.068L356.187 401.799L237.139 403.188V403.801H237.044V403.188V402.983L237.349 392.488L237.932 371.981L238.434 354.595L238.482 352.863C238.511 351.818 238.738 350.79 239.149 349.842C239.559 348.894 240.145 348.047 240.869 347.351C241.594 346.656 242.443 346.127 243.363 345.796C244.284 345.466 245.257 345.342 246.224 345.431C249.424 345.723 253.58 346.081 258.55 346.461L260.584 346.622C289.283 348.771 342.322 351.548 395.842 348.084C396.967 348.018 398.1 347.945 399.232 347.857C407.53 347.294 415.822 346.571 424.033 345.665C425.071 345.547 426.12 345.677 427.106 346.044C428.093 346.411 428.992 347.007 429.742 347.789C430.492 348.572 431.074 349.522 431.446 350.573C431.818 351.624 431.972 352.75 431.897 353.872V353.908Z" fill="black"/>
<path d="M237.119 403.801V403.188L356.187 401.792L428.731 401.061H428.934V400.937L429.612 391.114L429.904 386.729L431.016 370.206L431.89 357.124V356.802C431.931 356.199 431.906 355.594 431.816 354.997C431.82 354.973 431.82 354.948 431.816 354.924C431.63 353.691 431.164 352.526 430.46 351.533C429.713 350.501 428.735 349.691 427.618 349.18C426.5 348.668 425.281 348.472 424.073 348.61C415.863 349.516 407.571 350.239 399.273 350.802C398.14 350.89 397.008 350.963 395.883 351.029C342.362 354.456 289.324 351.679 260.625 349.567L258.591 349.406C253.621 349.026 249.465 348.675 246.265 348.376C244.504 348.216 242.751 348.764 241.344 349.915C239.937 351.067 238.975 352.739 238.644 354.61C238.576 355.005 238.535 355.406 238.522 355.808L238.061 372.003L237.431 392.518L237.132 403.012V403.217V403.831L237.119 403.801Z" fill="#3F3D56"/>
<path opacity="0.1" d="M432.101 359.031L431.267 370.235L430.026 386.934L429.714 391.114L429.036 400.476L428.995 400.944V401.068L428.894 402.15L428.968 401.068H428.772L356.227 401.799L237.139 403.187V402.983L237.471 392.488L238.149 371.981L238.583 358.352C238.604 357.576 238.805 356.819 239.168 356.149C239.53 355.479 240.042 354.917 240.658 354.515C241.426 354.008 242.323 353.777 243.221 353.857C244.644 353.981 246.394 354.127 248.434 354.288C251.75 354.551 255.838 354.858 260.597 355.18C269.411 355.779 280.469 356.422 293.141 356.948C328.396 358.41 375.991 358.9 421.199 354.632C423.233 354.442 425.334 354.23 427.389 354.018C428.202 353.93 429.021 354.098 429.748 354.5C429.954 354.611 430.149 354.743 430.331 354.895C430.921 355.356 431.389 355.976 431.687 356.693C431.756 356.835 431.813 356.985 431.857 357.138C432.06 357.744 432.143 358.389 432.101 359.031V359.031Z" fill="black"/>
<path opacity="0.1" d="M202.108 369.036V371.368C202.108 372.215 201.885 373.046 201.465 373.762C201.045 374.479 200.445 375.053 199.735 375.416L172.547 375.979C171.824 375.622 171.212 375.048 170.783 374.327C170.354 373.605 170.126 372.766 170.127 371.908V369.716L202.108 369.036Z" fill="black"/>
<path d="M202.447 376.79L167.022 377.521V371.185L202.447 370.454V376.79Z" fill="#3F3D56"/>
<path opacity="0.1" d="M202.447 376.79L167.022 377.521V371.185L202.447 370.454V376.79Z" fill="black"/>
<path d="M203.803 376.79L168.378 377.521V371.185L203.803 370.454V376.79Z" fill="#3F3D56"/>
<g opacity="0.1">
<path opacity="0.1" d="M321.087 137.87C320.425 136.942 319.985 135.853 319.806 134.698C319.642 135.827 319.74 136.982 320.091 138.06C320.427 138.026 320.76 137.963 321.087 137.87Z" fill="black"/>
<path opacity="0.1" d="M312.477 142.722C312.349 141.826 312.265 140.924 312.226 140.018C312.226 140.917 312.226 141.823 312.226 142.73L312.477 142.722Z" fill="black"/>
<path opacity="0.1" d="M367.733 167.11C367.77 166.459 367.852 165.812 367.977 165.173C368.297 164.062 368.48 162.909 368.519 161.746C368.504 161.485 368.468 161.225 368.411 160.971C368.295 161.643 368.112 162.316 367.977 162.981C367.706 164.336 367.624 165.728 367.733 167.11Z" fill="black"/>
<path opacity="0.1" d="M353.63 144.528L354.369 145.105C354.993 144.619 355.575 144.076 356.112 143.482C356.367 143.102 356.525 142.656 356.57 142.189C356.616 141.723 356.546 141.251 356.37 140.822C356.302 140.989 356.215 141.146 356.112 141.29C355.278 142.445 353.434 143.08 353.63 144.528Z" fill="black"/>
<path opacity="0.1" d="M297.92 151.558C297.673 152.091 297.476 152.649 297.331 153.224C298.391 152.586 299.534 152.121 300.721 151.843L297.92 151.558Z" fill="black"/>
<path opacity="0.1" d="M307.27 143.607C306.824 143.342 306.398 143.042 305.995 142.708C305.978 142.997 305.999 143.287 306.056 143.57C306.461 143.549 306.867 143.562 307.27 143.607V143.607Z" fill="black"/>
<path opacity="0.1" d="M373.556 186.667C373.278 190.211 371.746 193.624 370.506 196.986C368.017 203.724 366.614 210.872 365.563 218.041C364.621 224.465 363.529 231.758 358.444 235.318C356.991 236.253 355.436 236.99 353.814 237.51C346.505 240.236 339.135 242.969 331.44 243.963C323.745 244.957 315.67 244.087 308.958 239.951C307.012 238.856 305.341 237.269 304.09 235.325C302.28 232.234 302.246 228.36 301.378 224.823C300.638 222.196 299.732 219.628 298.666 217.135C297.168 213.203 296.015 209.096 294.869 205.054C293.807 201.298 292.747 197.539 291.69 193.778C291.341 192.646 291.083 191.485 290.917 190.306C290.652 192.177 291.168 194.136 291.69 195.97C292.747 199.736 293.807 203.495 294.869 207.247C296.015 211.317 297.168 215.395 298.666 219.327C299.732 221.82 300.638 224.389 301.378 227.015C302.232 230.553 302.266 234.426 304.09 237.517C305.341 239.461 307.012 241.049 308.958 242.143C315.67 246.28 323.765 247.15 331.44 246.156C339.115 245.162 346.478 242.428 353.814 239.703C355.436 239.182 356.991 238.446 358.444 237.51C363.495 233.951 364.621 226.657 365.563 220.233C366.614 213.064 368.017 205.917 370.506 199.178C371.984 195.174 373.895 191.103 373.57 186.798C373.57 186.754 373.556 186.711 373.556 186.667Z" fill="black"/>
<path opacity="0.1" d="M292.408 183.838C292.408 183.838 292.408 183.787 292.408 183.758C292.531 182.469 292.425 181.167 292.097 179.921C291.961 179.119 291.873 178.309 291.832 177.495C291.754 179.04 291.843 180.59 292.097 182.114C292.205 182.684 292.327 183.261 292.408 183.838Z" fill="black"/>
<path opacity="0.1" d="M294.476 165.963C294.998 165.018 295.59 164.121 296.246 163.28C295.005 164.559 292.714 163.419 292.232 161.643C292.055 162.362 292.055 163.118 292.232 163.836C292.399 164.372 292.695 164.851 293.089 165.225C293.483 165.598 293.962 165.853 294.476 165.963V165.963Z" fill="black"/>
</g>
<path opacity="0.1" d="M463.81 353.47C463.81 353.47 465.959 361.874 463.81 369.182C461.661 376.491 463.81 353.47 463.81 353.47Z" fill="black"/>
<path opacity="0.1" d="M472.963 362.042C472.963 362.042 473.865 372.712 471.831 374.605C469.797 376.498 472.963 362.042 472.963 362.042Z" fill="black"/>
<path d="M134.912 250.57L203.803 249.839" stroke="#4EAC77" stroke-width="2" stroke-miterlimit="10"/>
<path d="M134.912 259.683L203.803 258.96" stroke="#4EAC77" stroke-width="2" stroke-miterlimit="10"/>
<path d="M134.912 268.804L203.803 268.073" stroke="#4EAC77" stroke-width="2" stroke-miterlimit="10"/>
</g>
<defs>
<clipPath id="clip0">
<rect width="706" height="405" fill="white"/>
</clipPath>
</defs>
</svg>
