<svg width="660" height="379" viewBox="0 0 660 379" fill="none" xmlns="http://www.w3.org/2000/svg">
<g clip-path="url(#clip0)">
<path opacity="0.1" d="M609.397 299.695C608.661 301.405 607.928 303.092 607.197 304.756C606.057 307.341 604.93 309.877 603.819 312.361C603.325 313.462 602.83 314.543 602.349 315.624C596.898 327.64 591.808 338.268 587.486 347.008C583.564 354.928 577.74 361.563 570.624 366.22C563.509 370.876 555.364 373.382 547.042 373.475L450.925 374.604H449.911L441.671 374.699L434.623 374.781L413.01 375.035H412.136L401.133 375.164H400.797L332.979 375.958L272.444 376.642L265.402 376.724L221.669 377.237H221.619L193.256 377.565H192.951L103.267 378.611L76.4379 378.926C70.7125 378.996 65.0112 378.115 59.5341 376.313C50.0029 373.207 41.4372 367.355 34.7584 359.387C23.2358 345.688 14.8378 329.705 9.19686 312.361C8.38136 309.858 7.62078 307.323 6.91514 304.756C-12.6126 233.528 11.1934 141.631 54.039 80.1343C55.8348 77.5628 57.6602 75.0552 59.5151 72.6114L59.5595 72.5567C72.7364 55.1034 87.5105 40.5225 103.248 30.1545C131.136 11.7506 162.034 6.56662 192.425 22.016C218.139 35.0923 242.148 41.2406 265.421 42.9094C267.773 43.0735 270.124 43.1966 272.463 43.2718C325.849 45.0842 375.882 24.3276 434.636 10.9299C436.975 10.3965 439.32 9.86988 441.684 9.37063C483.598 0.370427 530.094 -4.37587 585.388 5.60231C591.133 6.61494 596.801 8.07781 602.349 9.9793C604.787 10.8273 607.136 11.7392 609.397 12.7149C635.789 24.3003 650.182 45.7065 656.299 72.5293C656.878 75.0187 657.378 77.5515 657.801 80.1275C668.645 144.647 636.885 236.167 609.397 299.695Z" fill="#4EAC77"/>
<g opacity="0.1">
<path opacity="0.1" d="M103.248 30.1534V378.685L76.4186 379C70.6932 379.07 64.9919 378.189 59.5148 376.387V72.5556H59.5592C72.7361 55.0818 87.5103 40.5009 103.248 30.1534Z" fill="#4EAC77"/>
<path opacity="0.1" d="M657.832 80.1332H54.0387C55.8345 77.5618 57.6599 75.0541 59.5148 72.6103V72.5556H656.33C656.909 75.0313 657.41 77.5572 657.832 80.1332Z" fill="#4EAC77"/>
<path opacity="0.1" d="M609.397 12.7206V304.748H607.197C606.056 307.334 604.93 309.869 603.819 312.353C603.325 313.455 602.83 314.535 602.349 315.616V9.95767C604.787 10.8057 607.136 11.7267 609.397 12.7206Z" fill="#4EAC77"/>
<path opacity="0.1" d="M441.684 9.349V374.726L434.636 374.808V10.9083C436.975 10.3749 439.32 9.84825 441.684 9.349Z" fill="#4EAC77"/>
<path opacity="0.1" d="M272.463 43.2502V376.709L265.421 376.791V42.8877C267.772 43.0519 270.124 43.1476 272.463 43.2502Z" fill="#4EAC77"/>
<path opacity="0.1" d="M607.197 304.755C606.056 307.34 604.93 309.875 603.819 312.36H9.19657C8.38107 309.857 7.6205 307.322 6.91486 304.755H607.197Z" fill="#4EAC77"/>
</g>
<path d="M146.157 181.803H134.114V221.237H146.157V181.803Z" fill="#3F3D56"/>
<path d="M470.243 179.751H458.201V221.469H470.243V179.751Z" fill="#3F3D56"/>
<path d="M547.042 364.966V373.857L450.754 374.815L449.727 374.835L413.131 375.198L412.256 375.211L401.133 375.314H400.803L332.998 375.991L221.694 377.106H221.599L193.3 377.393L192.995 377.4L67.2473 378.644V368.386L96.8146 349.236L156.139 348.703L157.407 348.696L157.825 348.689L159.093 348.669L187.576 348.416L188.85 348.409L189.256 348.402L190.524 348.395L199.657 348.313L199.898 348.306L222.43 348.101H222.613L398.433 346.501L402.736 346.467H403.167L406.45 346.432L430.313 346.22L431.581 346.2L432.753 346.186H433.362L440.784 346.125L442.254 346.104L444.225 346.09L450.405 346.029L460.21 345.94L461.478 345.926L463.683 345.913H464.095L511.447 345.475L547.042 364.966Z" fill="#65617D"/>
<path opacity="0.2" d="M547.042 364.966V373.857L450.754 374.815L449.727 374.835L413.131 375.198L412.256 375.211L401.133 375.314H400.803L332.998 375.991L221.694 377.106H221.599L193.3 377.393L192.995 377.4L67.2473 378.644V368.386L96.8146 349.236L156.139 348.703L157.407 348.696L157.825 348.689L159.093 348.669L187.576 348.416L188.85 348.409L189.256 348.402L190.524 348.395L199.657 348.313L199.898 348.306L222.43 348.101H222.613L398.433 346.501L402.736 346.467H403.167L406.45 346.432L430.313 346.22L431.581 346.2L432.753 346.186H433.362L440.784 346.125L442.254 346.104L444.225 346.09L450.405 346.029L460.21 345.94L461.478 345.926L463.683 345.913H464.095L511.447 345.475L547.042 364.966Z" fill="black"/>
<path d="M187.671 330.778V347.527C187.672 348.32 187.464 349.097 187.071 349.768C186.678 350.438 186.117 350.975 185.453 351.315C184.959 351.574 184.418 351.714 183.869 351.726L161.749 352.232C161.158 352.247 160.572 352.114 160.037 351.842C159.362 351.508 158.789 350.971 158.388 350.296C157.987 349.62 157.774 348.835 157.775 348.033V330.778H187.671Z" fill="#3F3D56"/>
<path opacity="0.1" d="M187.671 330.778V347.527C187.672 348.32 187.464 349.097 187.071 349.768C186.678 350.438 186.117 350.975 185.453 351.315C184.959 351.574 184.418 351.714 183.869 351.726L161.749 352.232C161.158 352.247 160.572 352.114 160.037 351.842C159.362 351.508 158.789 350.971 158.388 350.296C157.987 349.62 157.774 348.835 157.775 348.033V330.778H187.671Z" fill="black"/>
<path d="M188.939 330.778V347.527C188.939 348.32 188.731 349.097 188.338 349.768C187.946 350.438 187.385 350.975 186.721 351.315C186.226 351.574 185.686 351.714 185.136 351.726L163.016 352.232C162.425 352.247 161.84 352.114 161.305 351.842C160.629 351.508 160.057 350.971 159.655 350.296C159.254 349.62 159.041 348.835 159.042 348.033V330.778H188.939Z" fill="#3F3D56"/>
<path d="M461.478 330.778H431.581V352.321H461.478V330.778Z" fill="#3F3D56"/>
<path opacity="0.1" d="M461.478 330.778H431.581V352.321H461.478V330.778Z" fill="black"/>
<path d="M460.21 330.778H430.313V352.321H460.21V330.778Z" fill="#3F3D56"/>
<path opacity="0.1" d="M146.157 181.796V185.715L134.114 185.379V181.796H146.157Z" fill="black"/>
<path d="M225.421 71.3998L210.951 183.56C210.86 184.277 210.526 184.932 210.015 185.4C209.504 185.868 208.852 186.116 208.182 186.098L92.3209 182.856L90.1216 182.794C89.7386 182.785 89.3619 182.688 89.016 182.51C88.67 182.333 88.3627 182.079 88.1139 181.764C87.8651 181.45 87.6805 181.083 87.5721 180.686C87.4637 180.29 87.434 179.873 87.4849 179.464L103.729 62.0508C103.834 61.3235 104.188 60.665 104.721 60.2054C105.253 59.7458 105.926 59.5184 106.607 59.5682L222.886 68.0623C223.261 68.0858 223.628 68.1929 223.963 68.3769C224.297 68.5609 224.593 68.8178 224.831 69.1314C225.07 69.445 225.245 69.8085 225.347 70.1989C225.448 70.5893 225.474 70.9982 225.421 71.3998V71.3998Z" fill="#65617D"/>
<path d="M111.506 67.8161L99.2548 171.312L205.735 174.957L218.83 75.1065L111.506 67.8161Z" fill="#4EAC77"/>
<path d="M370.108 66.2158H247.142C245.276 66.2158 243.764 67.8478 243.764 69.861V181.112C243.764 183.125 245.276 184.757 247.142 184.757H370.108C371.973 184.757 373.486 183.125 373.486 181.112V69.861C373.486 67.8478 371.973 66.2158 370.108 66.2158Z" fill="#65617D"/>
<path d="M367.775 74.1969H249.886V172.905H367.775V74.1969Z" fill="#4EAC77"/>
<path opacity="0.1" d="M470.243 179.744V182.336L458.201 182.603V179.744H470.243Z" fill="black"/>
<path d="M524.58 177.556C524.597 177.839 524.561 178.123 524.474 178.391C524.387 178.659 524.25 178.905 524.072 179.115C523.895 179.324 523.68 179.493 523.44 179.61C523.201 179.728 522.942 179.792 522.679 179.799L404.029 182.446C403.536 182.457 403.058 182.266 402.69 181.912C402.322 181.558 402.092 181.067 402.045 180.537L391.847 66.1337C391.822 65.8498 391.851 65.5635 391.931 65.2919C392.011 65.0203 392.142 64.7691 392.315 64.5536C392.488 64.3381 392.7 64.1628 392.938 64.0382C393.175 63.9136 393.434 63.8424 393.698 63.8289L511.447 57.5096L512.715 57.4412C513.219 57.4126 513.713 57.5963 514.094 57.9536C514.475 58.3108 514.712 58.8138 514.756 59.3562L524.58 177.556Z" fill="#65617D"/>
<path d="M398.623 70.5517L506.161 64.8479L515.244 168.802L408.554 171.537L398.623 70.5517Z" fill="#4EAC77"/>
<path opacity="0.1" d="M524.58 177.556C524.597 177.839 524.561 178.123 524.474 178.391C524.387 178.659 524.25 178.905 524.072 179.115C523.895 179.324 523.68 179.493 523.44 179.61C523.201 179.728 522.942 179.792 522.678 179.799L511.447 57.5096L512.715 57.4412C513.219 57.4126 513.713 57.5963 514.094 57.9536C514.475 58.3108 514.712 58.8138 514.756 59.3562L524.58 177.556Z" fill="black"/>
<path opacity="0.1" d="M106.626 59.5613L92.3209 182.856L90.1216 182.794C89.7386 182.785 89.3619 182.688 89.016 182.51C88.67 182.333 88.3627 182.079 88.1139 181.764C87.8651 181.45 87.6805 181.083 87.5721 180.686C87.4637 180.29 87.434 179.873 87.4849 179.464L103.729 62.0508C103.833 61.3185 104.189 60.6553 104.726 60.1937C105.263 59.7322 105.941 59.5064 106.626 59.5613V59.5613Z" fill="black"/>
<path opacity="0.1" d="M146.157 209.556H134.114V221.237H146.157V209.556Z" fill="black"/>
<path opacity="0.1" d="M188.939 330.771V334.17L159.042 335.032V330.771H188.939Z" fill="black"/>
<path d="M241.704 213.625V328.658C241.696 329.36 241.438 330.032 240.984 330.535C240.53 331.038 239.914 331.333 239.264 331.359L117.794 334.847H117.762C117.101 334.838 116.469 334.551 116.001 334.046C115.533 333.541 115.267 332.859 115.258 332.146V213.625C115.267 212.911 115.533 212.229 116.001 211.724C116.469 211.22 117.101 210.932 117.762 210.923H239.2C239.862 210.932 240.494 211.22 240.961 211.724C241.429 212.229 241.696 212.911 241.704 213.625V213.625Z" fill="#65617D"/>
<path opacity="0.1" d="M117.794 210.923V334.847H117.762C117.101 334.838 116.469 334.551 116.001 334.046C115.533 333.541 115.267 332.859 115.258 332.146V213.625C115.267 212.911 115.533 212.229 116.001 211.724C116.469 211.22 117.101 210.932 117.762 210.923H117.794Z" fill="black"/>
<path d="M123.34 218.269H235.841V319.658L123.34 322.393V218.269Z" fill="#D4DFEC"/>
<path opacity="0.1" d="M470.243 209.556H458.201V221.469H470.243V209.556Z" fill="black"/>
<path opacity="0.1" d="M460.21 330.771V335.155L430.313 334.293V330.771H460.21Z" fill="black"/>
<path d="M499.665 213.625V332.146C499.657 332.865 499.386 333.552 498.911 334.058C498.437 334.564 497.797 334.847 497.13 334.847V334.847L375.634 331.359C374.984 331.333 374.368 331.038 373.914 330.535C373.46 330.032 373.202 329.36 373.194 328.658V213.625C373.202 212.911 373.469 212.229 373.937 211.724C374.404 211.22 375.036 210.932 375.698 210.923H497.136C497.802 210.925 498.44 211.209 498.913 211.715C499.387 212.22 499.657 212.906 499.665 213.625V213.625Z" fill="#65617D"/>
<path opacity="0.1" d="M499.665 213.625V332.146C499.657 332.865 499.386 333.552 498.911 334.058C498.437 334.564 497.797 334.847 497.13 334.847V334.847V210.923C497.797 210.923 498.437 211.207 498.911 211.712C499.386 212.218 499.657 212.905 499.665 213.625Z" fill="black"/>
<path d="M491.584 218.269H379.082V319.658L491.584 322.393V218.269Z" fill="#D4DFEC"/>
<path d="M370.05 213.625V328.658C370.043 329.36 369.785 330.032 369.331 330.535C368.877 331.038 368.261 331.333 367.61 331.359L246.14 334.847C245.474 334.847 244.833 334.564 244.359 334.058C243.884 333.552 243.614 332.865 243.605 332.146V213.625C243.613 212.911 243.88 212.229 244.348 211.724C244.815 211.22 245.447 210.932 246.109 210.923H367.547C368.208 210.932 368.84 211.22 369.308 211.724C369.776 212.229 370.042 212.911 370.05 213.625V213.625Z" fill="#65617D"/>
<path d="M251.686 218.269H364.188V319.658L251.686 322.393V218.269Z" fill="#D4DFEC"/>
<path opacity="0.1" d="M547.042 364.966V373.857L450.754 374.815L449.727 374.835L413.131 375.198L412.256 375.211L401.133 375.314H400.803L332.998 375.991L221.694 377.106H221.599L193.3 377.393L192.995 377.4L67.2473 378.644V368.386L195.6 367.476H195.905L221.884 367.285H222.005L401.424 366.006H401.608L401.716 365.999H402.014L405.05 365.978H405.975L453.187 365.636L455.976 365.623L456.597 365.616L547.042 364.966Z" fill="black"/>
<path d="M308.831 221.237C326.798 221.237 341.364 205.52 341.364 186.132C341.364 166.744 326.798 151.027 308.831 151.027C290.863 151.027 276.297 166.744 276.297 186.132C276.297 205.52 290.863 221.237 308.831 221.237Z" fill="#FBBEBE"/>
<path d="M341.371 257.942C341.371 257.942 278.306 266.149 284.328 257.942C286.508 254.974 287.11 246.179 286.99 236.159C286.952 233.116 286.85 229.963 286.704 226.824C286.007 211.778 284.328 197.074 284.328 197.074C284.328 197.074 339.469 169.034 333.131 191.261C330.596 200.241 331.426 212.852 333.353 224.69C333.917 228.144 334.57 231.529 335.254 234.744C336.925 242.584 338.966 250.327 341.371 257.942V257.942Z" fill="#FBBEBE"/>
<path opacity="0.1" d="M341.371 257.942C341.371 257.942 278.306 266.149 284.328 257.942C286.508 254.974 287.11 246.179 286.99 236.159C296.605 231.728 308.837 235.031 308.837 235.031C321.716 232.261 329.975 232.802 335.254 234.744C336.925 242.584 338.966 250.327 341.371 257.942V257.942Z" fill="black"/>
<path d="M221.669 377.878V377.304L332.979 375.998L400.797 375.314H400.987L400.917 376.326L401.012 375.314H401.133V375.198L402.001 365.999L402.33 362.518L402.432 361.43L402.521 360.521L406.438 346.426L410.355 332.351L413.65 320.499L418.683 302.389C418.683 302.389 415.831 295.208 414.246 293.156C412.662 291.104 411.077 277.084 411.077 277.084C411.077 277.084 397.552 263.181 391.638 261.58C389.16 260.896 384.267 259.987 379.07 258.845C377.124 258.421 375.127 257.969 373.207 257.477C372.123 257.21 371.058 256.93 370.038 256.649C368.052 256.114 366.095 255.461 364.175 254.693C363.169 254.299 362.211 253.773 361.323 253.127C356.664 249.441 344.99 249.024 344.54 249.024C344.538 249.008 344.538 248.992 344.54 248.976V248.914C344.556 248.627 344.556 248.34 344.54 248.053C344.54 247.779 344.54 247.458 344.483 247.095C344.483 246.986 344.483 246.869 344.438 246.753C344.407 246.507 344.369 246.247 344.311 245.974C344.292 245.851 344.267 245.73 344.235 245.611C344.052 244.787 343.786 243.987 343.443 243.224C343.399 243.115 343.342 242.999 343.291 242.889C342.98 242.257 342.62 241.656 342.214 241.09C342.131 240.974 342.042 240.851 341.947 240.735C341.428 240.074 340.851 239.47 340.223 238.929C340.052 238.786 339.875 238.635 339.691 238.498C339.588 238.409 339.48 238.326 339.368 238.252L338.804 237.856L338.278 237.527C337.815 237.254 337.327 236.987 336.794 236.734C336.63 236.652 336.452 236.577 336.275 236.501C336.097 236.426 335.818 236.31 335.584 236.214H335.546L335.07 236.009C334.709 235.879 334.342 235.763 333.955 235.647L333.366 235.482L332.732 235.325L332.098 235.181C331.464 235.045 330.786 234.922 330.076 234.826L329.353 234.73L328.612 234.648L327.845 234.58L326.755 234.511L325.487 234.463C319.897 234.463 314.322 235.102 308.856 236.372C305.059 235.46 301.17 235.074 297.283 235.223H296.731L296.097 235.264H295.692L294.874 235.346C294.602 235.346 294.323 235.407 294.05 235.448C293.778 235.489 293.492 235.523 293.22 235.571L292.802 235.647C292.39 235.722 291.971 235.804 291.534 235.9C291.395 235.927 291.255 235.961 291.116 236.002C290.564 236.132 290.013 236.289 289.468 236.467C289.195 236.549 288.923 236.645 288.65 236.748C288.511 236.789 288.378 236.843 288.245 236.898L287.839 237.055L287.44 237.226L286.964 237.432C286.723 237.541 286.489 237.657 286.254 237.78C286.121 237.842 285.988 237.91 285.861 237.986C285.735 238.061 285.602 238.122 285.481 238.198C284.048 238.997 282.724 240.005 281.545 241.193L281.222 241.528L280.905 241.877C280.797 241.993 280.696 242.116 280.594 242.239C280.181 242.727 279.796 243.241 279.441 243.778C279.339 243.922 279.244 244.065 279.149 244.216C278.747 244.856 278.383 245.523 278.059 246.213C277.977 246.377 277.901 246.548 277.825 246.712C277.307 247.868 276.883 249.069 276.557 250.303C276.439 250.759 276.331 251.215 276.234 251.67C276.234 251.67 262.816 258.058 251.686 262.681C248.726 263.912 245.938 265.027 243.605 265.868C242.927 266.115 242.293 266.34 241.704 266.552C240.425 267.051 239.095 267.382 237.742 267.537C237.105 267.548 236.469 267.612 235.841 267.729C230.726 268.624 221.961 272.516 221.004 276.421C220.926 276.733 220.904 277.058 220.94 277.378C220.94 277.378 220.94 277.426 220.94 277.454C221.574 282.241 217.137 281.557 217.137 281.557C217.137 281.557 215.553 294.209 213.334 297.629C211.731 300.091 210.634 305.583 210.495 309.727C210.415 311.018 210.509 312.315 210.774 313.578C210.774 313.612 210.774 313.646 210.774 313.673C211.027 314.59 210.419 317.093 209.386 320.3C208.264 323.823 206.629 328.2 205.057 332.33C202.686 338.568 200.455 344.23 200.316 345.475C200.259 346.029 200.094 347.021 199.866 348.299C198.941 353.511 196.887 363.434 195.873 367.449C195.119 370.444 194.022 374.548 193.268 377.365C193.268 377.448 193.224 377.53 193.205 377.605L221.618 377.304V377.878H221.707H221.669Z" fill="#4EAC77"/>
<path opacity="0.1" d="M232.038 297.266C232.038 297.266 268.165 317.442 281.159 315.048L232.038 297.266Z" fill="black"/>
<path opacity="0.1" d="M305.56 289.06C305.56 289.06 340.737 301.37 352.462 303.08C364.188 304.789 305.56 289.06 305.56 289.06Z" fill="black"/>
<path opacity="0.1" d="M344.578 249.448C326.197 253.1 291.591 252.313 276.633 251.759C282.116 230.558 308.85 237.767 308.85 237.767C341.941 230.64 344.476 245.426 344.578 249.448Z" fill="black"/>
<path d="M344.578 248.08C326.197 251.732 291.591 250.946 276.633 250.392C282.116 229.19 308.85 236.399 308.85 236.399C341.941 229.273 344.476 244.059 344.578 248.08Z" fill="#4EAC77"/>
<path d="M442.146 341.549C442.146 341.549 463.798 337.959 464.222 348.217C464.647 358.476 453.181 365.643 453.181 365.643L442.146 341.549Z" fill="#FBBEBE"/>
<path opacity="0.1" d="M333.353 224.69C332.422 225.139 331.47 225.537 330.501 225.88C323.668 228.424 316.779 230.989 309.585 231.919C302.391 232.849 294.842 232.029 288.568 228.158C287.909 227.756 287.274 227.311 286.666 226.824C285.969 211.778 284.29 197.074 284.29 197.074C284.29 197.074 339.431 169.034 333.093 191.261C330.57 200.241 331.426 212.852 333.353 224.69Z" fill="black"/>
<path d="M299.907 131.262C299.002 131.52 298.054 131.546 297.139 131.338C296.223 131.13 295.365 130.694 294.633 130.065L295.952 132.042C295.175 132.138 294.388 132.051 293.645 131.785C292.903 131.519 292.224 131.082 291.655 130.503C291.535 132.272 291.603 134.05 291.857 135.803C289.676 135.917 287.528 135.189 285.798 133.751C285.764 134.368 285.907 134.982 286.206 135.509C286.505 136.036 286.947 136.451 287.471 136.699C285.28 136.417 283.068 137.004 281.249 138.352C279.43 139.7 278.127 141.716 277.584 144.024L280.892 144.352C278.292 144.951 275.959 146.488 274.275 148.708C273.261 150.076 272.488 151.827 272.932 153.496C273.375 155.165 275.518 156.231 276.684 155.041C275.025 157.178 273.819 159.68 273.151 162.373C272.484 165.065 272.37 167.883 272.818 170.628C273.118 171.797 273.217 173.017 273.109 174.225C272.9 175.353 272.241 176.331 271.911 177.433C271.277 179.43 271.88 181.597 272.444 183.588L275.416 194.133C276.494 197.943 277.565 201.759 278.972 205.445C279.968 207.776 280.815 210.177 281.507 212.633C282.306 215.943 282.337 219.568 284.042 222.461C285.211 224.281 286.773 225.767 288.593 226.79C294.862 230.661 302.436 231.482 309.61 230.551C316.785 229.621 323.668 227.057 330.494 224.513C332.011 224.02 333.467 223.331 334.83 222.461C339.552 219.123 340.604 212.298 341.485 206.286C342.467 199.584 343.779 192.896 346.105 186.59C347.487 182.835 349.274 179.026 348.97 175.005C348.583 169.663 344.666 165.334 343.697 160.082C343.372 158.326 343.387 156.517 343.741 154.768C344.042 153.726 344.21 152.644 344.242 151.554C344.134 149.351 342.461 147.655 340.889 146.24C337.479 143.167 333.959 140.262 330.33 137.527C330.146 136.159 331.87 135.571 332.649 134.49C333.752 132.965 332.611 130.544 330.938 129.833C329.265 129.121 327.389 129.586 325.646 130.058C325.759 129.096 325.582 128.119 325.14 127.274C324.698 126.429 324.015 125.76 323.192 125.368C322.37 124.975 321.452 124.879 320.575 125.095C319.698 125.31 318.909 125.825 318.325 126.564C317.862 125.418 317.123 124.428 316.184 123.697C315.245 122.965 314.142 122.519 312.989 122.405C308.786 122.05 308.704 125.517 306.017 127.425C303.329 129.333 301.111 126.817 299.045 124.984C298.665 126.02 298.545 127.145 298.696 128.248C298.848 129.35 299.265 130.389 299.907 131.262V131.262Z" fill="#3F3D56"/>
<path d="M458.201 362.066C458.201 362.066 457.637 363.516 456.597 365.616C455.025 368.846 453.111 371.869 450.893 374.623L450.722 374.821H449.695L413.099 375.184H412.224L412.117 375.047L405.018 365.958L402.343 362.532L402.236 362.388L402.007 362.101L401.881 361.937L401.716 361.725L396.512 355.063L398.414 346.514L401.652 332.111L401.735 331.763L402.369 329.027L402.819 326.975L404.327 320.287L409.499 297.273L418.689 302.403L428.38 320.868L433.584 330.785H436.436C436.975 330.785 438.211 331.906 439.453 333.199C439.897 333.657 440.34 334.143 440.721 334.567C441.849 335.825 442.742 336.906 442.742 336.906C442.742 336.906 447.363 337.015 448.605 340.941C448.669 341.131 448.722 341.325 448.764 341.522C449.176 343.065 449.712 344.566 450.367 346.008C451.185 347.93 452.212 350.112 453.251 352.293C455.184 356.294 457.149 360.104 457.871 361.485L457.96 361.656L458.201 362.066Z" fill="#4EAC77"/>
<path opacity="0.1" d="M403.757 331.188L403.693 332.166V332.235L403.586 333.808L402.743 346.467L401.722 361.718L401.431 366.013L400.797 375.204V375.321L332.979 376.005L221.688 377.304V377.878H221.599V377.304V377.112L221.885 367.292L222.43 348.101L222.899 331.831L222.943 330.21C222.971 329.232 223.183 328.27 223.567 327.383C223.951 326.496 224.498 325.703 225.175 325.052C225.853 324.401 226.646 323.906 227.507 323.597C228.367 323.288 229.277 323.172 230.181 323.255C233.173 323.528 237.058 323.864 241.704 324.219L243.605 324.37C270.435 326.38 320.018 328.979 370.051 325.737C371.103 325.676 372.161 325.608 373.22 325.525C380.977 324.999 388.729 324.322 396.404 323.474C397.375 323.364 398.356 323.485 399.278 323.829C400.2 324.172 401.041 324.73 401.742 325.462C402.443 326.194 402.987 327.083 403.335 328.067C403.683 329.05 403.827 330.104 403.757 331.154V331.188Z" fill="black"/>
<path d="M221.669 377.878V377.304L332.979 375.998L400.797 375.314H400.987V375.198L401.621 366.006L401.893 361.902L402.933 346.439L403.75 334.197V333.896C403.788 333.332 403.765 332.765 403.681 332.207C403.684 332.185 403.684 332.161 403.681 332.139C403.506 330.985 403.071 329.895 402.413 328.965C401.715 328 400.801 327.242 399.756 326.763C398.711 326.285 397.571 326.101 396.442 326.23C388.767 327.078 381.015 327.755 373.258 328.282C372.199 328.364 371.141 328.432 370.089 328.494C320.056 331.701 270.473 329.102 243.643 327.126L241.742 326.975C237.096 326.62 233.211 326.291 230.219 326.011C228.573 325.861 226.935 326.374 225.619 327.452C224.303 328.529 223.404 330.094 223.095 331.845C223.031 332.215 222.993 332.59 222.981 332.966L222.55 348.122L221.961 367.319L221.682 377.14V377.331V377.906L221.669 377.878Z" fill="#3F3D56"/>
<path opacity="0.1" d="M403.947 335.982L403.167 346.467L402.007 362.094L401.716 366.006L401.082 374.767L401.044 375.204V375.321L400.949 376.333L401.019 375.321H400.835L333.017 376.005L221.688 377.304V377.112L221.999 367.292L222.633 348.101L223.038 335.346C223.058 334.621 223.246 333.912 223.585 333.285C223.924 332.658 224.402 332.132 224.978 331.756C225.695 331.281 226.534 331.066 227.373 331.14C228.704 331.257 230.34 331.393 232.247 331.544C235.347 331.79 239.169 332.077 243.618 332.378C251.858 332.939 262.195 333.541 274.041 334.033C306.999 335.401 351.493 335.859 393.755 331.865C395.657 331.687 397.621 331.489 399.542 331.291C400.302 331.209 401.068 331.366 401.747 331.742C401.94 331.846 402.123 331.969 402.293 332.111C402.844 332.543 403.281 333.123 403.56 333.794C403.625 333.927 403.678 334.067 403.719 334.211C403.909 334.778 403.987 335.381 403.947 335.982V335.982Z" fill="black"/>
<path opacity="0.1" d="M188.939 345.345V347.527C188.939 348.32 188.731 349.097 188.338 349.768C187.946 350.438 187.385 350.975 186.721 351.315L161.305 351.842C160.629 351.508 160.057 350.971 159.655 350.296C159.254 349.62 159.041 348.835 159.042 348.033V345.981L188.939 345.345Z" fill="black"/>
<path d="M189.256 352.601L156.139 353.285V347.356L189.256 346.672V352.601Z" fill="#3F3D56"/>
<path opacity="0.1" d="M189.256 352.601L156.139 353.285V347.356L189.256 346.672V352.601Z" fill="black"/>
<path d="M190.524 352.601L157.407 353.285V347.356L190.524 346.672V352.601Z" fill="#3F3D56"/>
<g opacity="0.1">
<path opacity="0.1" d="M300.167 129.019C299.547 128.151 299.136 127.131 298.969 126.051C298.816 127.107 298.907 128.188 299.235 129.197C299.549 129.165 299.861 129.106 300.167 129.019Z" fill="black"/>
<path opacity="0.1" d="M292.117 133.56C291.998 132.722 291.919 131.877 291.883 131.029C291.883 131.871 291.883 132.719 291.883 133.567L292.117 133.56Z" fill="black"/>
<path opacity="0.1" d="M343.773 156.382C343.808 155.773 343.884 155.167 344.001 154.57C344.301 153.529 344.471 152.451 344.508 151.362C344.494 151.118 344.46 150.875 344.406 150.637C344.299 151.266 344.128 151.895 344.001 152.518C343.748 153.787 343.671 155.089 343.773 156.382Z" fill="black"/>
<path opacity="0.1" d="M330.589 135.249L331.28 135.789C331.863 135.335 332.408 134.827 332.909 134.271C333.148 133.915 333.296 133.498 333.338 133.061C333.38 132.624 333.315 132.183 333.15 131.782C333.087 131.938 333.006 132.085 332.909 132.219C332.13 133.3 330.406 133.895 330.589 135.249Z" fill="black"/>
<path opacity="0.1" d="M278.509 141.828C278.278 142.327 278.093 142.849 277.958 143.388C278.949 142.791 280.017 142.355 281.127 142.095L278.509 141.828Z" fill="black"/>
<path opacity="0.1" d="M287.25 134.387C286.833 134.14 286.435 133.859 286.058 133.546C286.042 133.817 286.061 134.088 286.115 134.353C286.493 134.334 286.873 134.345 287.25 134.387V134.387Z" fill="black"/>
<path opacity="0.1" d="M349.217 174.683C348.957 178 347.525 181.194 346.365 184.34C344.039 190.646 342.727 197.334 341.745 204.043C340.864 210.055 339.843 216.88 335.09 220.211C333.731 221.086 332.277 221.776 330.761 222.262C323.928 224.813 317.039 227.371 309.845 228.301C302.651 229.232 295.102 228.418 288.828 224.547C287.008 223.522 285.447 222.037 284.277 220.218C282.585 217.325 282.553 213.7 281.742 210.39C281.05 207.932 280.203 205.528 279.206 203.195C277.806 199.516 276.728 195.672 275.657 191.89C274.664 188.375 273.673 184.857 272.685 181.338C272.359 180.279 272.117 179.192 271.962 178.089C271.715 179.84 272.196 181.673 272.685 183.389C273.673 186.914 274.664 190.431 275.657 193.942C276.728 197.751 277.806 201.568 279.206 205.247C280.203 207.58 281.05 209.984 281.742 212.442C282.54 215.752 282.572 219.376 284.277 222.269C285.447 224.089 287.008 225.574 288.828 226.598C295.102 230.469 302.67 231.283 309.845 230.353C317.02 229.423 323.903 226.865 330.761 224.314C332.277 223.827 333.731 223.138 335.09 222.262C339.811 218.932 340.864 212.107 341.745 206.095C342.727 199.386 344.039 192.697 346.365 186.392C347.747 182.644 349.534 178.835 349.23 174.806C349.23 174.765 349.217 174.724 349.217 174.683Z" fill="black"/>
<path opacity="0.1" d="M273.356 172.036C273.356 172.036 273.356 171.989 273.356 171.961C273.471 170.755 273.372 169.537 273.065 168.371C272.938 167.62 272.856 166.862 272.818 166.1C272.745 167.546 272.828 168.997 273.065 170.422C273.166 170.956 273.28 171.496 273.356 172.036Z" fill="black"/>
<path opacity="0.1" d="M275.289 155.308C275.777 154.425 276.33 153.585 276.944 152.798C275.784 153.995 273.642 152.928 273.192 151.266C273.026 151.938 273.026 152.646 273.192 153.318C273.348 153.82 273.624 154.268 273.992 154.618C274.361 154.967 274.808 155.205 275.289 155.308V155.308Z" fill="black"/>
</g>
<path opacity="0.1" d="M433.59 330.778C433.59 330.778 435.599 338.643 433.59 345.482C431.581 352.321 433.59 330.778 433.59 330.778Z" fill="black"/>
<path opacity="0.1" d="M442.147 338.8C442.147 338.8 442.99 348.785 441.088 350.556C439.187 352.328 442.147 338.8 442.147 338.8Z" fill="black"/>
<path d="M126.122 234.484L190.524 233.8" stroke="#4EAC77" stroke-width="2" stroke-miterlimit="10"/>
<path d="M126.122 243.012L190.524 242.335" stroke="#4EAC77" stroke-width="2" stroke-miterlimit="10"/>
<path d="M126.122 251.547L190.524 250.863" stroke="#4EAC77" stroke-width="2" stroke-miterlimit="10"/>
</g>
<defs>
<clipPath id="clip0">
<rect width="660" height="379" fill="white"/>
</clipPath>
</defs>
</svg>
