<svg width="823" height="476" viewBox="0 0 823 476" fill="none" xmlns="http://www.w3.org/2000/svg">
<g clip-path="url(#clip0)">
<path opacity="0.1" d="M759.9 376.399C758.983 378.547 758.069 380.665 757.157 382.755C755.734 386.002 754.33 389.186 752.945 392.307C752.328 393.69 751.712 395.047 751.111 396.404C744.314 411.496 737.968 424.844 732.577 435.821C727.686 445.767 720.424 454.101 711.551 459.95C702.679 465.798 692.522 468.945 682.146 469.062L562.29 470.479H561.026L550.751 470.599L541.963 470.703L515.012 471.02H513.921L500.201 471.184H499.782L415.215 472.18L339.73 473.039L330.949 473.142L276.415 473.786H276.352L240.984 474.198H240.605L128.771 475.513L95.3161 475.908C88.1767 475.995 81.0674 474.889 74.2377 472.627C62.3526 468.725 51.6713 461.375 43.3432 451.368C28.9747 434.163 18.5027 414.09 11.4687 392.307C10.4517 389.163 9.50333 385.979 8.62342 382.755C-15.727 293.297 13.9582 177.881 67.3854 100.644C69.6247 97.4148 71.9009 94.2654 74.214 91.1961L74.2693 91.1274C90.7005 69.2072 109.123 50.8945 128.748 37.873C163.523 14.7588 202.052 8.24806 239.949 27.6516C272.013 44.0745 301.951 51.7964 330.973 53.8922C333.905 54.0984 336.837 54.253 339.753 54.3475C406.324 56.6237 468.714 30.5548 541.978 13.7281C544.895 13.0581 547.819 12.3967 550.767 11.7697C603.032 0.466038 661.012 -5.49502 729.961 7.03695C737.125 8.30875 744.193 10.146 751.111 12.5342C754.151 13.5993 757.081 14.7445 759.9 15.9699C792.809 30.5204 810.758 57.4053 818.385 91.093C819.107 94.2196 819.731 97.4005 820.258 100.636C833.781 181.668 794.177 296.612 759.9 376.399Z" fill="#4EAC77"/>
<g opacity="0.1">
<path opacity="0.1" d="M128.747 37.8707V475.605L95.2917 476C88.1523 476.088 81.043 474.981 74.2133 472.719V91.1251H74.2686C90.6998 69.1792 109.123 50.8665 128.747 37.8707Z" fill="#4EAC77"/>
<path opacity="0.1" d="M820.297 100.642H67.3846C69.6239 97.4126 71.9001 94.2632 74.2132 91.1939V91.1252H818.424C819.146 94.2346 819.77 97.4069 820.297 100.642Z" fill="#4EAC77"/>
<path opacity="0.1" d="M759.899 15.9763V382.745H757.157C755.734 385.992 754.33 389.175 752.944 392.296C752.328 393.679 751.711 395.036 751.11 396.393V12.5062C754.151 13.5713 757.08 14.728 759.899 15.9763Z" fill="#4EAC77"/>
<path opacity="0.1" d="M550.766 11.7417V470.632L541.978 470.735V13.7001C544.894 13.0301 547.818 12.3688 550.766 11.7417Z" fill="#4EAC77"/>
<path opacity="0.1" d="M339.753 54.3195V473.123L330.972 473.226V53.8643C333.904 54.0704 336.836 54.1907 339.753 54.3195Z" fill="#4EAC77"/>
<path opacity="0.1" d="M757.156 382.753C755.734 386 754.33 389.184 752.944 392.305H11.4679C10.4509 389.161 9.50253 385.977 8.62262 382.753H757.156Z" fill="#4EAC77"/>
</g>
<path d="M182.253 228.333H167.237V277.859H182.253V228.333Z" fill="#3F3D56"/>
<path d="M586.379 225.756H571.363V278.151H586.379V225.756Z" fill="#3F3D56"/>
<path d="M682.145 458.375V469.541L562.076 470.743L560.796 470.769L515.161 471.224L514.071 471.242L500.2 471.37H499.789L415.238 472.221L276.446 473.621H276.328L241.039 473.982L240.659 473.99L83.8553 475.553V462.669L120.725 438.619L194.701 437.949L196.282 437.94L196.803 437.932L198.384 437.906L233.902 437.588L235.491 437.58L235.996 437.571L237.577 437.562L248.966 437.459L249.266 437.451L277.363 437.193H277.592L496.833 435.183L502.2 435.14H502.737L506.831 435.097L536.588 434.831L538.168 434.805L539.63 434.788H540.389L549.644 434.711L551.478 434.685L553.936 434.668L561.641 434.59L573.868 434.479L575.449 434.462L578.199 434.444H578.713L637.759 433.895L682.145 458.375Z" fill="#65617D"/>
<path opacity="0.2" d="M682.145 458.375V469.541L562.076 470.743L560.796 470.769L515.161 471.224L514.071 471.242L500.2 471.37H499.789L415.238 472.221L276.446 473.621H276.328L241.039 473.982L240.659 473.99L83.8553 475.553V462.669L120.725 438.619L194.701 437.949L196.282 437.94L196.803 437.932L198.384 437.906L233.902 437.588L235.491 437.58L235.996 437.571L237.577 437.562L248.966 437.459L249.266 437.451L277.363 437.193H277.592L496.833 435.183L502.2 435.14H502.737L506.831 435.097L536.588 434.831L538.168 434.805L539.63 434.788H540.389L549.644 434.711L551.478 434.685L553.936 434.668L561.641 434.59L573.868 434.479L575.449 434.462L578.199 434.444H578.713L637.759 433.895L682.145 458.375Z" fill="black"/>
<path d="M234.021 415.436V436.471C234.021 437.468 233.761 438.444 233.272 439.286C232.782 440.128 232.082 440.803 231.254 441.23C230.638 441.555 229.964 441.731 229.278 441.745L201.696 442.381C200.959 442.4 200.228 442.233 199.562 441.891C198.719 441.472 198.005 440.797 197.505 439.949C197.005 439.101 196.739 438.115 196.74 437.107V415.436H234.021Z" fill="#3F3D56"/>
<path opacity="0.1" d="M234.021 415.436V436.471C234.021 437.468 233.761 438.444 233.272 439.286C232.782 440.128 232.082 440.803 231.254 441.23C230.638 441.555 229.964 441.731 229.278 441.745L201.696 442.381C200.959 442.4 200.228 442.233 199.562 441.891C198.719 441.472 198.005 440.797 197.505 439.949C197.005 439.101 196.739 438.115 196.74 437.107V415.436H234.021Z" fill="black"/>
<path d="M235.601 415.436V436.471C235.602 437.468 235.342 438.444 234.852 439.286C234.363 440.128 233.663 440.803 232.835 441.23C232.219 441.555 231.544 441.731 230.859 441.745L203.276 442.381C202.54 442.4 201.809 442.233 201.142 441.891C200.3 441.472 199.586 440.797 199.085 439.949C198.585 439.101 198.32 438.115 198.321 437.107V415.436H235.601Z" fill="#3F3D56"/>
<path d="M575.449 415.436H538.168V442.493H575.449V415.436Z" fill="#3F3D56"/>
<path opacity="0.1" d="M575.449 415.436H538.168V442.493H575.449V415.436Z" fill="black"/>
<path d="M573.868 415.436H536.588V442.493H573.868V415.436Z" fill="#3F3D56"/>
<path opacity="0.1" d="M182.253 228.324V233.246L167.237 232.825V228.324H182.253Z" fill="black"/>
<path d="M281.093 89.6736L263.05 230.54C262.935 231.44 262.52 232.262 261.883 232.85C261.246 233.438 260.432 233.75 259.596 233.727L115.121 229.655L112.379 229.578C111.901 229.566 111.432 229.444 111 229.221C110.569 228.999 110.186 228.679 109.875 228.285C109.565 227.89 109.335 227.429 109.2 226.931C109.065 226.433 109.028 225.91 109.091 225.395L129.348 77.9319C129.478 77.0184 129.919 76.1914 130.583 75.6141C131.248 75.0369 132.087 74.7513 132.936 74.8139L277.932 85.4819C278.4 85.5114 278.857 85.6459 279.275 85.877C279.692 86.1082 280.061 86.4308 280.358 86.8247C280.655 87.2186 280.874 87.6751 281 88.1654C281.127 88.6557 281.159 89.1693 281.093 89.6736V89.6736Z" fill="#65617D"/>
<path d="M139.045 85.1727L123.768 215.156L256.545 219.735L272.874 94.3291L139.045 85.1727Z" fill="#4EAC77"/>
<path d="M461.513 83.1628H308.179C305.852 83.1628 303.966 85.2125 303.966 87.741V227.465C303.966 229.994 305.852 232.043 308.179 232.043H461.513C463.84 232.043 465.726 229.994 465.726 227.465V87.741C465.726 85.2125 463.84 83.1628 461.513 83.1628Z" fill="#65617D"/>
<path d="M458.604 93.1866H311.601V217.158H458.604V93.1866Z" fill="#4EAC77"/>
<path opacity="0.1" d="M586.379 225.747V229.003L571.363 229.338V225.747H586.379Z" fill="black"/>
<path d="M654.135 222.999C654.157 223.354 654.112 223.711 654.003 224.048C653.894 224.384 653.724 224.693 653.502 224.957C653.281 225.22 653.013 225.432 652.714 225.579C652.415 225.727 652.092 225.807 651.764 225.816L503.812 229.14C503.197 229.154 502.601 228.914 502.142 228.47C501.683 228.025 501.396 227.409 501.338 226.744L488.622 83.0597C488.59 82.7032 488.626 82.3435 488.726 82.0024C488.826 81.6613 488.989 81.3459 489.205 81.0752C489.421 80.8046 489.685 80.5843 489.981 80.4279C490.278 80.2714 490.6 80.182 490.929 80.1651L637.759 72.2284L639.34 72.1425C639.968 72.1066 640.585 72.3373 641.06 72.786C641.535 73.2347 641.831 73.8663 641.885 74.5476L654.135 222.999Z" fill="#65617D"/>
<path d="M497.07 88.6085L631.168 81.4449L642.494 212.004L509.455 215.44L497.07 88.6085Z" fill="#4EAC77"/>
<path opacity="0.1" d="M654.135 222.999C654.157 223.354 654.112 223.711 654.003 224.048C653.894 224.384 653.724 224.693 653.502 224.957C653.281 225.22 653.013 225.432 652.714 225.579C652.415 225.727 652.092 225.807 651.764 225.816L637.76 72.2284L639.34 72.1425C639.969 72.1066 640.585 72.3373 641.06 72.786C641.535 73.2347 641.831 73.8663 641.885 74.5476L654.135 222.999Z" fill="black"/>
<path opacity="0.1" d="M132.959 74.8053L115.121 229.655L112.379 229.578C111.901 229.566 111.432 229.444 111 229.221C110.569 228.998 110.186 228.679 109.875 228.285C109.565 227.89 109.335 227.429 109.2 226.931C109.065 226.433 109.028 225.91 109.091 225.395L129.348 77.9318C129.477 77.0121 129.92 76.1792 130.59 75.5995C131.259 75.0199 132.106 74.7362 132.959 74.8053V74.8053Z" fill="black"/>
<path opacity="0.1" d="M182.253 263.189H167.237V277.859H182.253V263.189Z" fill="black"/>
<path opacity="0.1" d="M235.601 415.427V419.696L198.321 420.779V415.427H235.601Z" fill="black"/>
<path d="M301.397 268.299V412.773C301.388 413.655 301.067 414.499 300.5 415.131C299.934 415.762 299.166 416.133 298.355 416.166L146.885 420.547H146.846C146.021 420.536 145.233 420.175 144.65 419.541C144.066 418.907 143.734 418.05 143.724 417.154V268.299C143.734 267.403 144.066 266.546 144.65 265.912C145.233 265.279 146.021 264.918 146.846 264.906H298.276C299.1 264.918 299.888 265.279 300.472 265.912C301.055 266.546 301.387 267.403 301.397 268.299V268.299Z" fill="#65617D"/>
<path opacity="0.1" d="M146.885 264.906V420.547H146.846C146.021 420.536 145.233 420.175 144.65 419.541C144.066 418.907 143.734 418.05 143.724 417.154V268.299C143.734 267.403 144.066 266.546 144.65 265.912C145.233 265.279 146.021 264.918 146.846 264.906H146.885Z" fill="black"/>
<path d="M153.801 274.131H294.087V401.47L153.801 404.905V274.131Z" fill="#D4DFEC"/>
<path opacity="0.1" d="M586.379 263.189H571.363V278.151H586.379V263.189Z" fill="black"/>
<path opacity="0.1" d="M573.868 415.427V420.933L536.588 419.851V415.427H573.868Z" fill="black"/>
<path d="M623.067 268.299V417.154C623.056 418.058 622.719 418.921 622.127 419.556C621.535 420.191 620.737 420.547 619.905 420.547V420.547L468.405 416.166C467.594 416.133 466.825 415.762 466.259 415.131C465.693 414.499 465.371 413.655 465.362 412.773V268.299C465.372 267.403 465.704 266.546 466.288 265.912C466.871 265.279 467.659 264.918 468.484 264.906H619.913C620.744 264.909 621.54 265.266 622.13 265.9C622.72 266.535 623.056 267.397 623.067 268.299V268.299Z" fill="#65617D"/>
<path opacity="0.1" d="M623.067 268.299V417.154C623.057 418.058 622.719 418.921 622.127 419.556C621.535 420.191 620.737 420.547 619.906 420.547V420.547V264.906C620.737 264.906 621.535 265.262 622.127 265.897C622.719 266.533 623.057 267.395 623.067 268.299Z" fill="black"/>
<path d="M612.99 274.131H472.704V401.47L612.99 404.905V274.131Z" fill="#D4DFEC"/>
<path d="M461.442 268.299V412.773C461.432 413.655 461.111 414.499 460.545 415.131C459.978 415.762 459.21 416.133 458.399 416.166L306.93 420.547C306.098 420.547 305.3 420.191 304.708 419.556C304.116 418.921 303.779 418.058 303.768 417.154V268.299C303.779 267.403 304.111 266.546 304.694 265.912C305.277 265.279 306.066 264.918 306.89 264.906H458.32C459.145 264.918 459.933 265.279 460.516 265.912C461.099 266.546 461.432 267.403 461.442 268.299V268.299Z" fill="#65617D"/>
<path d="M313.845 274.131H454.131V401.47L313.845 404.905V274.131Z" fill="#D4DFEC"/>
<path opacity="0.1" d="M682.145 458.375V469.541L562.076 470.743L560.796 470.769L515.161 471.224L514.071 471.241L500.2 471.37H499.789L415.238 472.221L276.446 473.621H276.328L241.039 473.982L240.659 473.99L83.8553 475.553V462.669L243.908 461.527H244.287L276.683 461.286H276.833L500.564 459.68H500.793L500.927 459.671H501.299L505.085 459.646H506.238L565.111 459.216L568.589 459.199L569.363 459.19L682.145 458.375Z" fill="black"/>
<path d="M385.102 277.859C407.508 277.859 425.671 258.12 425.671 233.77C425.671 209.42 407.508 189.68 385.102 189.68C362.697 189.68 344.534 209.42 344.534 233.77C344.534 258.12 362.697 277.859 385.102 277.859Z" fill="#FBBEBE"/>
<path d="M425.679 323.959C425.679 323.959 347.04 334.266 354.548 323.959C357.267 320.231 358.017 309.185 357.867 296.601C357.82 292.779 357.693 288.819 357.512 284.877C356.642 265.98 354.548 247.513 354.548 247.513C354.548 247.513 423.308 212.296 415.404 240.212C412.243 251.49 413.278 267.329 415.681 282.197C416.384 286.535 417.198 290.786 418.052 294.823C420.135 304.67 422.681 314.395 425.679 323.959V323.959Z" fill="#FBBEBE"/>
<path opacity="0.1" d="M425.679 323.959C425.679 323.959 347.04 334.266 354.548 323.959C357.267 320.231 358.017 309.185 357.867 296.601C369.857 291.035 385.11 295.184 385.11 295.184C401.17 291.705 411.468 292.384 418.052 294.823C420.135 304.67 422.681 314.395 425.679 323.959V323.959Z" fill="black"/>
<path d="M276.415 474.591V473.87L415.215 472.229L499.781 471.37H500.018L499.932 472.641L500.05 471.37H500.2V471.224L501.283 459.671L501.694 455.299L501.82 453.934L501.931 452.791L506.815 435.089L511.7 417.412L515.809 402.526L522.085 379.781C522.085 379.781 518.528 370.762 516.552 368.186C514.577 365.609 512.601 348 512.601 348C512.601 348 495.735 330.538 488.361 328.528C485.271 327.669 479.169 326.527 472.688 325.092C470.262 324.56 467.772 323.993 465.378 323.375C464.026 323.04 462.698 322.687 461.426 322.335C458.949 321.663 456.509 320.843 454.115 319.879C452.86 319.383 451.666 318.723 450.559 317.912C444.75 313.282 430.192 312.758 429.63 312.758C429.629 312.738 429.629 312.718 429.63 312.698V312.621C429.651 312.26 429.651 311.899 429.63 311.538C429.63 311.195 429.63 310.791 429.559 310.336C429.559 310.198 429.559 310.052 429.504 309.906C429.465 309.597 429.417 309.271 429.346 308.927C429.322 308.774 429.29 308.622 429.251 308.472C429.022 307.437 428.691 306.432 428.263 305.474C428.208 305.337 428.137 305.191 428.073 305.053C427.686 304.26 427.237 303.504 426.73 302.794C426.627 302.648 426.517 302.494 426.398 302.348C425.751 301.518 425.031 300.759 424.248 300.08C424.035 299.9 423.814 299.711 423.584 299.539C423.456 299.426 423.322 299.323 423.181 299.23L422.478 298.732L421.822 298.319C421.245 297.976 420.636 297.641 419.972 297.323C419.767 297.22 419.546 297.125 419.324 297.031C419.103 296.936 418.755 296.79 418.463 296.67H418.416L417.823 296.412C417.372 296.249 416.914 296.103 416.432 295.957L415.697 295.751L414.906 295.553L414.116 295.373C413.326 295.201 412.48 295.047 411.595 294.926L410.694 294.806L409.769 294.703L408.813 294.617L407.453 294.531L405.873 294.471C398.901 294.47 391.95 295.274 385.134 296.868C380.4 295.723 375.55 295.238 370.703 295.425H370.015L369.225 295.476H368.719L367.699 295.579C367.359 295.579 367.012 295.657 366.672 295.708C366.332 295.76 365.976 295.803 365.636 295.863L365.115 295.957C364.601 296.052 364.079 296.155 363.534 296.275C363.36 296.309 363.186 296.352 363.012 296.404C362.325 296.567 361.637 296.765 360.958 296.988C360.618 297.091 360.278 297.211 359.938 297.34C359.764 297.392 359.598 297.46 359.432 297.529L358.926 297.727L358.428 297.941L357.836 298.199C357.535 298.336 357.243 298.482 356.951 298.637C356.785 298.714 356.619 298.8 356.461 298.895C356.302 298.989 356.136 299.067 355.986 299.161C354.199 300.165 352.548 301.43 351.078 302.923L350.675 303.344L350.28 303.782C350.146 303.928 350.019 304.083 349.893 304.237C349.378 304.849 348.897 305.495 348.454 306.17C348.328 306.35 348.209 306.531 348.091 306.72C347.589 307.524 347.135 308.361 346.731 309.228C346.629 309.434 346.534 309.649 346.439 309.855C345.794 311.306 345.265 312.815 344.858 314.364C344.711 314.937 344.576 315.51 344.455 316.082C344.455 316.082 327.724 324.105 313.845 329.911C310.154 331.457 306.677 332.857 303.768 333.914C302.923 334.223 302.132 334.506 301.397 334.773C299.802 335.399 298.144 335.814 296.458 336.01C295.663 336.024 294.87 336.104 294.087 336.25C287.709 337.375 276.778 342.263 275.585 347.167C275.488 347.559 275.461 347.967 275.506 348.37C275.506 348.37 275.506 348.43 275.506 348.464C276.296 354.477 270.764 353.618 270.764 353.618C270.764 353.618 268.788 369.508 266.022 373.803C264.022 376.895 262.655 383.793 262.481 388.998C262.381 390.619 262.499 392.248 262.829 393.834C262.829 393.877 262.829 393.919 262.829 393.954C263.145 395.105 262.386 398.249 261.098 402.277C259.699 406.701 257.66 412.198 255.7 417.386C252.744 425.219 249.962 432.331 249.788 433.895C249.717 434.59 249.511 435.836 249.227 437.442C248.073 443.987 245.512 456.45 244.248 461.492C243.307 465.255 241.94 470.408 240.999 473.947C240.999 474.05 240.944 474.153 240.92 474.248L276.351 473.87V474.591H276.462H276.415Z" fill="#4EAC77"/>
<path opacity="0.1" d="M289.345 373.348C289.345 373.348 334.394 398.687 350.596 395.68L289.345 373.348Z" fill="black"/>
<path opacity="0.1" d="M381.024 363.041C381.024 363.041 424.888 378.501 439.51 380.649C454.131 382.796 381.024 363.041 381.024 363.041Z" fill="black"/>
<path opacity="0.1" d="M429.678 313.291C406.758 317.877 363.605 316.89 344.953 316.194C351.79 289.567 385.126 298.62 385.126 298.62C426.39 289.67 429.551 308.24 429.678 313.291Z" fill="black"/>
<path d="M429.678 311.573C406.758 316.159 363.605 315.172 344.953 314.476C351.79 287.849 385.126 296.902 385.126 296.902C426.39 287.952 429.551 306.522 429.678 311.573Z" fill="#4EAC77"/>
<path d="M551.343 428.964C551.343 428.964 578.341 424.455 578.871 437.339C579.401 450.223 565.103 459.225 565.103 459.225L551.343 428.964Z" fill="#FBBEBE"/>
<path opacity="0.1" d="M415.681 282.197C414.52 282.761 413.333 283.26 412.124 283.691C403.604 286.887 395.013 290.108 386.043 291.276C377.073 292.444 367.66 291.413 359.835 286.552C359.014 286.047 358.222 285.488 357.464 284.877C356.595 265.98 354.5 247.513 354.5 247.513C354.5 247.513 423.26 212.296 415.357 240.212C412.211 251.49 413.278 267.329 415.681 282.197Z" fill="black"/>
<path d="M373.975 164.857C372.846 165.181 371.664 165.213 370.523 164.952C369.381 164.691 368.311 164.144 367.399 163.354L369.043 165.836C368.074 165.957 367.092 165.847 366.167 165.514C365.241 165.18 364.394 164.63 363.684 163.903C363.535 166.126 363.62 168.359 363.937 170.56C361.217 170.703 358.539 169.789 356.381 167.983C356.339 168.758 356.517 169.529 356.89 170.19C357.263 170.852 357.814 171.374 358.468 171.685C355.736 171.331 352.978 172.068 350.709 173.761C348.44 175.454 346.816 177.986 346.139 180.885L350.264 181.297C347.022 182.05 344.112 183.979 342.013 186.768C340.749 188.486 339.784 190.685 340.338 192.781C340.891 194.877 343.562 196.217 345.016 194.722C342.948 197.405 341.444 200.548 340.611 203.93C339.779 207.311 339.637 210.85 340.195 214.298C340.57 215.767 340.694 217.298 340.559 218.816C340.298 220.233 339.476 221.461 339.065 222.844C338.275 225.352 339.026 228.075 339.729 230.574L343.436 243.819C344.779 248.604 346.115 253.397 347.869 258.026C349.112 260.953 350.168 263.97 351.031 267.054C352.027 271.211 352.066 275.763 354.192 279.397C355.649 281.683 357.597 283.549 359.867 284.834C367.683 289.695 377.128 290.726 386.075 289.558C395.021 288.39 403.604 285.169 412.116 281.974C414.007 281.355 415.823 280.489 417.522 279.397C423.41 275.205 424.722 266.633 425.821 259.083C427.046 250.665 428.682 242.265 431.583 234.345C433.305 229.63 435.534 224.845 435.155 219.795C434.673 213.086 429.788 207.649 428.579 201.053C428.174 198.848 428.193 196.575 428.635 194.379C429.01 193.07 429.22 191.712 429.259 190.342C429.125 187.576 427.038 185.446 425.078 183.668C420.826 179.808 416.437 176.16 411.911 172.725C411.682 171.007 413.831 170.268 414.804 168.911C416.179 166.996 414.756 163.955 412.67 163.062C410.583 162.168 408.244 162.752 406.07 163.345C406.212 162.136 405.991 160.91 405.439 159.848C404.888 158.787 404.036 157.947 403.011 157.454C401.985 156.961 400.841 156.841 399.747 157.111C398.654 157.382 397.67 158.029 396.942 158.956C396.365 157.517 395.443 156.274 394.272 155.355C393.101 154.437 391.725 153.876 390.287 153.733C385.047 153.287 384.944 157.642 381.593 160.038C378.242 162.435 375.476 159.274 372.9 156.972C372.426 158.273 372.276 159.687 372.465 161.071C372.654 162.455 373.174 163.761 373.975 164.857V164.857Z" fill="#3F3D56"/>
<path d="M571.363 454.733C571.363 454.733 570.659 456.554 569.363 459.19C567.403 463.247 565.016 467.044 562.25 470.503L562.037 470.752H560.756L515.122 471.207H514.031L513.897 471.035L505.045 459.62L501.71 455.317L501.575 455.136L501.291 454.776L501.133 454.569L500.927 454.303L494.439 445.937L496.81 435.2L500.848 417.111L500.951 416.673L501.741 413.237L502.303 410.66L504.184 402.26L510.633 373.356L522.093 379.799L534.177 402.99L540.666 415.445H544.222C544.894 415.445 546.435 416.853 547.984 418.477C548.538 419.052 549.091 419.662 549.565 420.195C550.972 421.775 552.086 423.132 552.086 423.132C552.086 423.132 557.848 423.27 559.397 428.2C559.477 428.438 559.543 428.682 559.595 428.93C560.109 430.868 560.778 432.753 561.594 434.565C562.614 436.978 563.894 439.718 565.19 442.458C567.601 447.483 570.051 452.267 570.952 454.002L571.062 454.217L571.363 454.733Z" fill="#4EAC77"/>
<path opacity="0.1" d="M503.472 415.951L503.393 417.18V417.266L503.259 419.241L502.208 435.14L500.935 454.295L500.572 459.689L499.781 471.233V471.379L415.215 472.238L276.438 473.87V474.591H276.328V473.87V473.629L276.683 461.295L277.363 437.193L277.948 416.759L278.003 414.723C278.038 413.494 278.303 412.286 278.781 411.172C279.26 410.059 279.942 409.063 280.787 408.245C281.632 407.428 282.621 406.806 283.694 406.418C284.767 406.029 285.902 405.883 287.029 405.988C290.759 406.331 295.604 406.752 301.397 407.199L303.768 407.388C337.224 409.913 399.052 413.177 461.442 409.106C462.754 409.028 464.074 408.942 465.394 408.839C475.067 408.178 484.733 407.328 494.304 406.263C495.514 406.125 496.737 406.277 497.887 406.708C499.037 407.14 500.086 407.84 500.96 408.76C501.834 409.679 502.512 410.796 502.946 412.031C503.38 413.266 503.56 414.59 503.472 415.908V415.951Z" fill="black"/>
<path d="M276.415 474.591V473.87L415.215 472.229L499.781 471.37H500.018V471.224L500.809 459.68L501.149 454.526L502.445 435.106L503.464 419.731V419.353C503.511 418.644 503.482 417.932 503.377 417.231C503.382 417.203 503.382 417.174 503.377 417.145C503.16 415.696 502.617 414.327 501.797 413.16C500.926 411.947 499.786 410.995 498.484 410.394C497.181 409.793 495.759 409.562 494.352 409.724C484.781 410.789 475.115 411.639 465.441 412.301C464.121 412.404 462.801 412.49 461.489 412.567C399.099 416.596 337.271 413.332 303.816 410.849L301.445 410.66C295.652 410.214 290.807 409.801 287.076 409.449C285.024 409.261 282.981 409.906 281.34 411.259C279.699 412.612 278.578 414.577 278.193 416.776C278.113 417.241 278.065 417.712 278.051 418.185L277.513 437.219L276.778 461.329L276.43 473.664V473.904V474.626L276.415 474.591Z" fill="#3F3D56"/>
<path opacity="0.1" d="M503.709 421.973L502.737 435.14L501.291 454.767L500.927 459.68L500.137 470.683L500.09 471.233V471.379L499.971 472.65L500.058 471.379H499.829L415.262 472.238L276.438 473.87V473.629L276.826 461.295L277.616 437.193L278.122 421.174C278.147 420.263 278.381 419.372 278.803 418.585C279.226 417.797 279.823 417.137 280.54 416.664C281.435 416.068 282.482 415.797 283.528 415.891C285.187 416.037 287.227 416.209 289.605 416.398C293.47 416.707 298.236 417.068 303.784 417.446C314.059 418.15 326.949 418.906 341.721 419.525C382.819 421.243 438.301 421.818 491.001 416.802C493.372 416.578 495.822 416.329 498.217 416.08C499.164 415.978 500.12 416.174 500.967 416.647C501.207 416.777 501.435 416.932 501.647 417.111C502.335 417.653 502.88 418.381 503.227 419.224C503.308 419.392 503.374 419.567 503.425 419.748C503.662 420.46 503.759 421.218 503.709 421.973V421.973Z" fill="black"/>
<path opacity="0.1" d="M235.601 433.731V436.471C235.602 437.468 235.342 438.444 234.852 439.286C234.363 440.128 233.663 440.802 232.835 441.23L201.142 441.891C200.3 441.472 199.586 440.797 199.085 439.949C198.585 439.101 198.32 438.115 198.321 437.107V434.53L235.601 433.731Z" fill="black"/>
<path d="M235.996 442.845L194.701 443.704V436.257L235.996 435.398V442.845Z" fill="#3F3D56"/>
<path opacity="0.1" d="M235.996 442.845L194.701 443.704V436.257L235.996 435.398V442.845Z" fill="black"/>
<path d="M237.577 442.845L196.282 443.704V436.257L237.577 435.398V442.845Z" fill="#3F3D56"/>
<g opacity="0.1">
<path opacity="0.1" d="M374.299 162.039C373.526 160.949 373.013 159.669 372.805 158.312C372.614 159.638 372.728 160.996 373.137 162.263C373.529 162.223 373.918 162.149 374.299 162.039Z" fill="black"/>
<path opacity="0.1" d="M364.261 167.743C364.112 166.69 364.015 165.629 363.969 164.565C363.969 165.621 363.969 166.686 363.969 167.751L364.261 167.743Z" fill="black"/>
<path opacity="0.1" d="M428.674 196.406C428.718 195.64 428.813 194.88 428.959 194.13C429.333 192.823 429.545 191.468 429.591 190.101C429.573 189.794 429.531 189.49 429.465 189.191C429.33 189.981 429.117 190.771 428.959 191.553C428.643 193.146 428.547 194.782 428.674 196.406Z" fill="black"/>
<path opacity="0.1" d="M412.235 169.864L413.097 170.543C413.823 169.972 414.503 169.334 415.128 168.636C415.425 168.189 415.609 167.665 415.662 167.116C415.715 166.568 415.634 166.014 415.428 165.51C415.349 165.706 415.249 165.89 415.128 166.059C414.156 167.416 412.006 168.164 412.235 169.864Z" fill="black"/>
<path opacity="0.1" d="M347.293 178.127C347.004 178.754 346.774 179.41 346.605 180.086C347.841 179.336 349.173 178.789 350.557 178.462L347.293 178.127Z" fill="black"/>
<path opacity="0.1" d="M358.192 168.782C357.672 168.471 357.176 168.118 356.706 167.726C356.686 168.065 356.71 168.407 356.777 168.739C357.249 168.715 357.722 168.729 358.192 168.782V168.782Z" fill="black"/>
<path opacity="0.1" d="M435.463 219.391C435.139 223.557 433.353 227.568 431.907 231.519C429.006 239.439 427.37 247.839 426.145 256.265C425.047 263.816 423.774 272.388 417.847 276.571C416.153 277.67 414.339 278.536 412.448 279.148C403.929 282.351 395.338 285.564 386.367 286.732C377.397 287.9 367.984 286.878 360.159 282.016C357.891 280.73 355.943 278.864 354.485 276.579C352.375 272.946 352.335 268.394 351.323 264.236C350.461 261.149 349.404 258.13 348.162 255.2C346.415 250.579 345.072 245.752 343.736 241.002C342.498 236.587 341.262 232.169 340.029 227.749C339.623 226.419 339.322 225.054 339.128 223.669C338.82 225.867 339.421 228.169 340.029 230.325C341.262 234.752 342.498 239.17 343.736 243.579C345.072 248.363 346.415 253.156 348.162 257.777C349.404 260.707 350.461 263.726 351.323 266.813C352.319 270.97 352.359 275.523 354.485 279.156C355.943 281.441 357.891 283.307 360.159 284.593C367.984 289.455 377.421 290.477 386.367 289.309C395.314 288.141 403.897 284.928 412.448 281.724C414.339 281.113 416.153 280.247 417.847 279.148C423.735 274.965 425.047 266.392 426.145 258.842C427.37 250.416 429.006 242.016 431.907 234.096C433.63 229.389 435.858 224.605 435.479 219.546C435.479 219.494 435.463 219.443 435.463 219.391Z" fill="black"/>
<path opacity="0.1" d="M340.867 216.067C340.867 216.067 340.867 216.007 340.867 215.972C341.01 214.458 340.886 212.928 340.504 211.463C340.346 210.52 340.243 209.568 340.195 208.611C340.104 210.428 340.208 212.249 340.504 214.04C340.63 214.71 340.772 215.388 340.867 216.067Z" fill="black"/>
<path opacity="0.1" d="M343.278 195.057C343.886 193.947 344.575 192.893 345.341 191.905C343.894 193.408 341.223 192.068 340.662 189.981C340.455 190.825 340.455 191.713 340.662 192.558C340.856 193.188 341.201 193.751 341.66 194.19C342.12 194.629 342.678 194.928 343.278 195.057V195.057Z" fill="black"/>
</g>
<path opacity="0.1" d="M540.674 415.436C540.674 415.436 543.179 425.314 540.674 433.903C538.168 442.493 540.674 415.436 540.674 415.436Z" fill="black"/>
<path opacity="0.1" d="M551.343 425.511C551.343 425.511 552.394 438.052 550.023 440.277C547.652 442.501 551.343 425.511 551.343 425.511Z" fill="black"/>
<path d="M157.27 294.497L237.577 293.638" stroke="#4EAC77" stroke-width="2" stroke-miterlimit="10"/>
<path d="M157.27 305.208L237.577 304.358" stroke="#4EAC77" stroke-width="2" stroke-miterlimit="10"/>
<path d="M157.27 315.928L237.577 315.069" stroke="#4EAC77" stroke-width="2" stroke-miterlimit="10"/>
</g>
<defs>
<clipPath id="clip0">
<rect width="823" height="476" fill="white"/>
</clipPath>
</defs>
</svg>
