<svg width="939" height="539" viewBox="0 0 939 539" fill="none" xmlns="http://www.w3.org/2000/svg">
<g clip-path="url(#clip0)">
<path opacity="0.1" d="M867.005 426.216C865.959 428.647 864.916 431.046 863.876 433.413C862.253 437.09 860.651 440.695 859.07 444.229C858.367 445.795 857.663 447.331 856.978 448.868C849.223 465.957 841.982 481.072 835.832 493.502C830.252 504.765 821.966 514.202 811.843 520.824C801.719 527.446 790.131 531.01 778.292 531.143L641.543 532.748H640.1L628.378 532.884L618.351 533L587.601 533.36H586.357L570.703 533.545H570.225L473.738 534.673L387.613 535.646L377.595 535.763L315.375 536.492H315.303L274.95 536.959H274.517L146.921 538.447L108.75 538.894C100.604 538.994 92.4931 537.741 84.7008 535.179C71.1405 530.761 58.9537 522.438 49.4517 511.107C33.0581 491.625 21.11 468.895 13.0846 444.229C11.9243 440.669 10.8422 437.064 9.8383 433.413C-17.9443 332.114 15.925 201.422 76.8827 113.964C79.4376 110.307 82.0346 106.741 84.6737 103.265L84.7368 103.187C103.484 78.3659 124.504 57.6295 146.894 42.8845C186.57 16.7112 230.53 9.33866 273.769 31.3103C310.352 49.9069 344.51 58.6508 377.622 61.024C380.967 61.2574 384.313 61.4325 387.64 61.5395C463.594 64.1169 534.777 34.5977 618.369 15.544C621.696 14.7854 625.032 14.0364 628.396 13.3264C688.028 0.526663 754.18 -6.22335 832.847 7.96725C841.02 9.40739 849.085 11.4878 856.978 14.1921C860.447 15.3981 863.789 16.6949 867.005 18.0826C904.554 34.5588 925.032 65.002 933.734 103.148C934.558 106.689 935.27 110.291 935.871 113.954C951.3 205.712 906.114 335.869 867.005 426.216Z" fill="#4EAC77"/>
<g opacity="0.1">
<path opacity="0.1" d="M146.893 42.8831V538.553L108.723 539C100.577 539.099 92.4657 537.846 84.6733 535.285V103.186H84.7365C103.484 78.3353 124.503 57.5989 146.893 42.8831Z" fill="#4EAC77"/>
<path opacity="0.1" d="M935.916 113.963H76.8823C79.4373 110.306 82.0343 106.739 84.6734 103.264V103.186H933.779C934.602 106.707 935.315 110.299 935.916 113.963Z" fill="#4EAC77"/>
<path opacity="0.1" d="M867.005 18.0908V433.402H863.876C862.253 437.079 860.651 440.684 859.07 444.218C858.367 445.784 857.663 447.32 856.978 448.857V14.1614C860.446 15.3675 863.789 16.6773 867.005 18.0908Z" fill="#4EAC77"/>
<path opacity="0.1" d="M628.396 13.2958V532.921L618.368 533.038V15.5134C621.696 14.7547 625.032 14.0058 628.396 13.2958Z" fill="#4EAC77"/>
<path opacity="0.1" d="M387.64 61.5088V535.742L377.622 535.858V60.9933C380.967 61.2268 384.313 61.3629 387.64 61.5088Z" fill="#4EAC77"/>
<path opacity="0.1" d="M863.876 433.412C862.253 437.088 860.651 440.694 859.07 444.227H13.0842C11.924 440.668 10.8419 437.062 9.83795 433.412H863.876Z" fill="#4EAC77"/>
</g>
<path d="M207.941 258.553H190.808V314.635H207.941V258.553Z" fill="#3F3D56"/>
<path d="M669.028 255.635H651.895V314.965H669.028V255.635Z" fill="#3F3D56"/>
<path d="M778.292 519.042V531.686L641.3 533.048L639.839 533.077L587.772 533.592L586.528 533.612L570.702 533.758H570.233L473.765 534.721L315.411 536.306H315.275L275.013 536.714L274.58 536.724L95.6746 538.494V523.905L137.741 496.671L222.144 495.913L223.947 495.903L224.542 495.893L226.346 495.864L266.87 495.504L268.682 495.494L269.26 495.485L271.063 495.475L284.057 495.358L284.4 495.349L316.457 495.057H316.718L566.861 492.781L572.984 492.732H573.597L578.268 492.684L612.218 492.382L614.022 492.353L615.69 492.333H616.556L627.115 492.246L629.207 492.217L632.012 492.197L640.804 492.11L654.754 491.983L656.557 491.964L659.695 491.944H660.281L727.65 491.322L778.292 519.042Z" fill="#65617D"/>
<path opacity="0.2" d="M778.292 519.042V531.686L641.3 533.048L639.839 533.077L587.772 533.592L586.528 533.612L570.702 533.758H570.233L473.765 534.721L315.411 536.306H315.275L275.013 536.714L274.58 536.724L95.6746 538.494V523.905L137.741 496.671L222.144 495.913L223.947 495.903L224.542 495.893L226.346 495.864L266.87 495.504L268.682 495.494L269.26 495.485L271.063 495.475L284.057 495.358L284.4 495.349L316.457 495.057H316.718L566.861 492.781L572.984 492.732H573.597L578.268 492.684L612.218 492.382L614.022 492.353L615.69 492.333H616.556L627.115 492.246L629.207 492.217L632.012 492.197L640.804 492.11L654.754 491.983L656.557 491.964L659.695 491.944H660.281L727.65 491.322L778.292 519.042Z" fill="black"/>
<path d="M267.005 470.42V494.24C267.006 495.368 266.709 496.473 266.151 497.427C265.592 498.381 264.794 499.144 263.849 499.628C263.146 499.996 262.377 500.195 261.595 500.212L230.124 500.931C229.284 500.953 228.45 500.763 227.689 500.377C226.728 499.902 225.913 499.138 225.343 498.178C224.772 497.217 224.469 496.1 224.47 494.959V470.42H267.005Z" fill="#3F3D56"/>
<path opacity="0.1" d="M267.005 470.42V494.24C267.006 495.368 266.709 496.473 266.151 497.427C265.592 498.381 264.794 499.144 263.849 499.628C263.146 499.996 262.377 500.195 261.595 500.212L230.124 500.931C229.284 500.953 228.45 500.763 227.689 500.377C226.728 499.902 225.913 499.138 225.343 498.178C224.772 497.217 224.469 496.1 224.47 494.959V470.42H267.005Z" fill="black"/>
<path d="M268.809 470.42V494.24C268.809 495.368 268.513 496.473 267.954 497.427C267.396 498.381 266.598 499.144 265.653 499.628C264.949 499.996 264.18 500.195 263.398 500.212L231.928 500.931C231.087 500.953 230.254 500.763 229.493 500.377C228.531 499.902 227.717 499.138 227.146 498.178C226.575 497.217 226.273 496.1 226.274 494.959V470.42H268.809Z" fill="#3F3D56"/>
<path d="M656.557 470.42H614.022V501.058H656.557V470.42Z" fill="#3F3D56"/>
<path opacity="0.1" d="M656.557 470.42H614.022V501.058H656.557V470.42Z" fill="black"/>
<path d="M654.753 470.42H612.219V501.058H654.753V470.42Z" fill="#3F3D56"/>
<path opacity="0.1" d="M207.941 258.543V264.117L190.808 263.64V258.543H207.941Z" fill="black"/>
<path d="M320.713 101.542L300.126 261.053C299.996 262.072 299.522 263.003 298.795 263.669C298.068 264.334 297.139 264.688 296.186 264.661L131.347 260.051L128.218 259.963C127.674 259.95 127.138 259.812 126.645 259.56C126.153 259.307 125.716 258.946 125.362 258.499C125.008 258.052 124.745 257.529 124.591 256.966C124.437 256.402 124.395 255.809 124.467 255.227L147.579 88.2464C147.728 87.212 148.231 86.2756 148.989 85.6219C149.747 84.9682 150.704 84.6449 151.673 84.7157L317.106 96.7957C317.64 96.8291 318.161 96.9814 318.638 97.2431C319.114 97.5048 319.535 97.8702 319.874 98.3162C320.213 98.7622 320.462 99.2791 320.607 99.8343C320.751 100.39 320.787 100.971 320.713 101.542V101.542Z" fill="#65617D"/>
<path d="M158.643 96.4456L141.213 243.633L292.705 248.817L311.335 106.814L158.643 96.4456Z" fill="#4EAC77"/>
<path d="M526.562 94.1696H351.616C348.961 94.1696 346.809 96.4906 346.809 99.3537V257.571C346.809 260.434 348.961 262.755 351.616 262.755H526.562C529.217 262.755 531.368 260.434 531.368 257.571V99.3537C531.368 96.4906 529.217 94.1696 526.562 94.1696Z" fill="#65617D"/>
<path d="M523.244 105.52H355.52V245.899H523.244V105.52Z" fill="#4EAC77"/>
<path opacity="0.1" d="M669.028 255.626V259.312L651.895 259.691V255.626H669.028Z" fill="black"/>
<path d="M746.334 252.513C746.359 252.916 746.307 253.32 746.183 253.701C746.059 254.082 745.865 254.432 745.612 254.73C745.36 255.028 745.054 255.268 744.713 255.435C744.372 255.603 744.003 255.694 743.629 255.703L574.823 259.467C574.122 259.483 573.441 259.212 572.918 258.709C572.394 258.205 572.067 257.507 572.001 256.754L557.492 94.0529C557.456 93.6492 557.496 93.242 557.611 92.8557C557.725 92.4694 557.911 92.1122 558.157 91.8058C558.404 91.4993 558.705 91.2499 559.043 91.0728C559.381 90.8956 559.749 90.7944 560.125 90.7752L727.65 81.7881L729.454 81.6908C730.171 81.6501 730.874 81.9113 731.416 82.4194C731.958 82.9275 732.295 83.6428 732.357 84.4142L746.334 252.513Z" fill="#65617D"/>
<path d="M567.131 100.336L720.13 92.2244L733.052 240.064L581.262 243.954L567.131 100.336Z" fill="#4EAC77"/>
<path opacity="0.1" d="M746.334 252.513C746.359 252.916 746.307 253.32 746.183 253.701C746.059 254.082 745.865 254.432 745.612 254.73C745.359 255.028 745.054 255.268 744.713 255.435C744.372 255.603 744.003 255.694 743.629 255.703L727.65 81.7881L729.454 81.6908C730.171 81.6501 730.874 81.9113 731.416 82.4194C731.958 82.9275 732.295 83.6428 732.357 84.4142L746.334 252.513Z" fill="black"/>
<path opacity="0.1" d="M151.7 84.706L131.347 260.051L128.218 259.963C127.674 259.949 127.138 259.812 126.645 259.559C126.153 259.307 125.716 258.946 125.362 258.499C125.008 258.052 124.745 257.529 124.591 256.966C124.437 256.402 124.395 255.809 124.467 255.227L147.579 88.2463C147.726 87.2049 148.232 86.2617 148.996 85.6053C149.76 84.949 150.726 84.6278 151.7 84.706V84.706Z" fill="black"/>
<path opacity="0.1" d="M207.941 298.022H190.808V314.635H207.941V298.022Z" fill="black"/>
<path opacity="0.1" d="M268.809 470.41V475.244L226.274 476.47V470.41H268.809Z" fill="black"/>
<path d="M343.879 303.809V467.405C343.868 468.404 343.501 469.359 342.855 470.075C342.209 470.79 341.332 471.209 340.407 471.247L167.588 476.207H167.543C166.602 476.195 165.703 475.786 165.038 475.068C164.372 474.35 163.993 473.38 163.981 472.365V303.809C163.993 302.794 164.372 301.825 165.038 301.107C165.703 300.389 166.602 299.98 167.543 299.968H340.317C341.258 299.98 342.157 300.389 342.822 301.107C343.488 301.825 343.867 302.794 343.879 303.809V303.809Z" fill="#65617D"/>
<path opacity="0.1" d="M167.588 299.968V476.207H167.543C166.602 476.195 165.703 475.786 165.038 475.068C164.372 474.35 163.993 473.38 163.981 472.365V303.809C163.993 302.794 164.372 301.825 165.038 301.107C165.703 300.389 166.602 299.98 167.543 299.968H167.588Z" fill="black"/>
<path d="M175.479 310.414H335.537V454.605L175.479 458.496V310.414Z" fill="#D4DFEC"/>
<path opacity="0.1" d="M669.028 298.022H651.895V314.965H669.028V298.022Z" fill="black"/>
<path opacity="0.1" d="M654.753 470.41V476.645L612.219 475.419V470.41H654.753Z" fill="black"/>
<path d="M710.887 303.809V472.365C710.875 473.389 710.49 474.366 709.815 475.085C709.139 475.804 708.229 476.207 707.28 476.207V476.207L534.425 471.247C533.5 471.209 532.624 470.79 531.977 470.075C531.331 469.359 530.965 468.404 530.954 467.405V303.809C530.965 302.794 531.344 301.825 532.01 301.107C532.675 300.389 533.574 299.98 534.515 299.968H707.289C708.236 299.97 709.145 300.374 709.818 301.093C710.491 301.812 710.875 302.788 710.887 303.809V303.809Z" fill="#65617D"/>
<path opacity="0.1" d="M710.887 303.809V472.365C710.875 473.389 710.49 474.366 709.815 475.085C709.139 475.804 708.229 476.207 707.28 476.207V476.207V299.968C708.229 299.967 709.139 300.371 709.815 301.09C710.49 301.809 710.875 302.786 710.887 303.809Z" fill="black"/>
<path d="M699.39 310.414H539.331V454.605L699.39 458.496V310.414Z" fill="#D4DFEC"/>
<path d="M526.481 303.809V467.405C526.47 468.404 526.104 469.359 525.457 470.075C524.811 470.79 523.935 471.209 523.009 471.247L350.191 476.207C349.242 476.207 348.331 475.804 347.656 475.085C346.981 474.366 346.596 473.389 346.584 472.365V303.809C346.596 302.794 346.975 301.825 347.64 301.107C348.306 300.389 349.205 299.98 350.146 299.968H522.919C523.86 299.98 524.759 300.389 525.425 301.107C526.09 301.825 526.469 302.794 526.481 303.809V303.809Z" fill="#65617D"/>
<path d="M358.081 310.414H518.14V454.605L358.081 458.496V310.414Z" fill="#D4DFEC"/>
<path opacity="0.1" d="M778.292 519.042V531.686L641.3 533.048L639.839 533.077L587.772 533.592L586.528 533.612L570.702 533.758H570.233L473.765 534.721L315.411 536.306H315.275L275.013 536.714L274.58 536.724L95.6746 538.494V523.905L278.286 522.611H278.719L315.681 522.339H315.853L571.117 520.52H571.379L571.532 520.51H571.956L576.275 520.481H577.592L644.762 519.995L648.73 519.975L649.614 519.966L778.292 519.042Z" fill="black"/>
<path d="M439.382 314.635C464.945 314.635 485.668 292.283 485.668 264.71C485.668 237.137 464.945 214.785 439.382 214.785C413.819 214.785 393.095 237.137 393.095 264.71C393.095 292.283 413.819 314.635 439.382 314.635Z" fill="#FBBEBE"/>
<path d="M485.677 366.836C485.677 366.836 395.954 378.507 404.521 366.836C407.623 362.614 408.479 350.106 408.308 335.857C408.254 331.529 408.11 327.045 407.902 322.581C406.91 301.183 404.521 280.272 404.521 280.272C404.521 280.272 482.972 240.394 473.955 272.005C470.348 284.775 471.529 302.71 474.27 319.546C475.073 324.458 476.002 329.273 476.976 333.844C479.352 344.994 482.257 356.006 485.677 366.836V366.836Z" fill="#FBBEBE"/>
<path opacity="0.1" d="M485.677 366.836C485.677 366.836 395.954 378.507 404.521 366.836C407.623 362.614 408.479 350.106 408.308 335.857C421.987 329.555 439.391 334.253 439.391 334.253C457.714 330.313 469.464 331.082 476.976 333.844C479.352 344.994 482.257 356.006 485.677 366.836V366.836Z" fill="black"/>
<path d="M315.375 537.405V536.588L473.738 534.73L570.224 533.758H570.495L570.396 535.197L570.531 533.758H570.702V533.592L571.938 520.51L572.407 515.56L572.551 514.013L572.677 512.72L578.25 492.674L583.823 472.657L588.512 455.802L595.671 430.046C595.671 430.046 591.614 419.834 589.359 416.916C587.105 413.998 584.851 394.059 584.851 394.059C584.851 394.059 565.607 374.286 557.194 372.01C553.668 371.037 546.707 369.744 539.313 368.119C536.544 367.516 533.704 366.874 530.972 366.174C529.43 365.795 527.915 365.396 526.463 364.997C523.637 364.236 520.853 363.307 518.122 362.216C516.69 361.655 515.327 360.907 514.064 359.988C507.436 354.746 490.826 354.153 490.186 354.153C490.184 354.13 490.184 354.107 490.186 354.084V353.997C490.209 353.589 490.209 353.179 490.186 352.771C490.186 352.382 490.186 351.925 490.105 351.41C490.105 351.254 490.105 351.089 490.042 350.923C489.997 350.573 489.942 350.204 489.861 349.815C489.834 349.641 489.798 349.469 489.753 349.299C489.492 348.127 489.114 346.989 488.626 345.905C488.563 345.749 488.482 345.584 488.409 345.428C487.967 344.53 487.455 343.674 486.877 342.87C486.759 342.705 486.633 342.53 486.498 342.364C485.759 341.425 484.938 340.565 484.045 339.797C483.802 339.592 483.549 339.378 483.288 339.184C483.142 339.056 482.988 338.939 482.828 338.834L482.025 338.27L481.277 337.803C480.618 337.414 479.924 337.034 479.167 336.674C478.932 336.558 478.68 336.451 478.427 336.344C478.175 336.237 477.778 336.071 477.444 335.935H477.39L476.714 335.643C476.2 335.459 475.677 335.293 475.127 335.128L474.288 334.894L473.386 334.671L472.485 334.467C471.583 334.272 470.618 334.097 469.608 333.961L468.58 333.825L467.525 333.708L466.434 333.611L464.883 333.513L463.08 333.445C455.126 333.444 447.194 334.354 439.418 336.159C434.016 334.862 428.483 334.313 422.952 334.525H422.168L421.266 334.583H420.689L419.526 334.7C419.138 334.7 418.741 334.788 418.353 334.846C417.966 334.904 417.56 334.953 417.172 335.021L416.577 335.128C415.991 335.235 415.396 335.352 414.773 335.488C414.575 335.527 414.377 335.575 414.178 335.634C413.394 335.818 412.609 336.042 411.834 336.295C411.446 336.412 411.058 336.548 410.67 336.694C410.472 336.752 410.283 336.83 410.093 336.908L409.516 337.132L408.948 337.375L408.272 337.667C407.929 337.822 407.596 337.987 407.262 338.163C407.073 338.25 406.883 338.347 406.703 338.454C406.522 338.561 406.333 338.649 406.162 338.756C404.123 339.892 402.239 341.326 400.562 343.016L400.102 343.493L399.651 343.989C399.498 344.154 399.354 344.329 399.209 344.504C398.622 345.197 398.074 345.928 397.568 346.692C397.424 346.897 397.289 347.101 397.153 347.315C396.581 348.225 396.063 349.174 395.602 350.155C395.485 350.388 395.377 350.632 395.269 350.865C394.533 352.508 393.929 354.217 393.465 355.971C393.297 356.62 393.144 357.268 393.005 357.917C393.005 357.917 373.916 367.001 358.081 373.576C353.87 375.327 349.902 376.912 346.584 378.108C345.619 378.458 344.717 378.779 343.879 379.081C342.059 379.79 340.167 380.261 338.243 380.481C337.336 380.497 336.431 380.589 335.537 380.754C328.26 382.028 315.789 387.562 314.428 393.116C314.317 393.559 314.287 394.022 314.338 394.478C314.338 394.478 314.338 394.546 314.338 394.585C315.239 401.393 308.927 400.42 308.927 400.42C308.927 400.42 306.673 418.414 303.517 423.277C301.235 426.778 299.675 434.589 299.477 440.483C299.364 442.319 299.497 444.164 299.874 445.959C299.874 446.007 299.874 446.056 299.874 446.095C300.234 447.398 299.369 450.958 297.899 455.52C296.303 460.529 293.976 466.753 291.74 472.628C288.367 481.498 285.193 489.552 284.995 491.322C284.914 492.11 284.679 493.52 284.355 495.339C283.038 502.75 280.117 516.863 278.674 522.572C277.601 526.832 276.041 532.668 274.968 536.675C274.968 536.792 274.904 536.909 274.877 537.016L315.302 536.588V537.405H315.429H315.375Z" fill="#4EAC77"/>
<path opacity="0.1" d="M330.127 422.762C330.127 422.762 381.526 451.454 400.012 448.05L330.127 422.762Z" fill="black"/>
<path opacity="0.1" d="M434.729 411.09C434.729 411.09 484.776 428.597 501.458 431.029C518.14 433.46 434.729 411.09 434.729 411.09Z" fill="black"/>
<path opacity="0.1" d="M490.24 354.756C464.09 359.949 414.855 358.831 393.573 358.043C401.374 327.892 439.409 338.143 439.409 338.143C486.489 328.008 490.096 349.036 490.24 354.756Z" fill="black"/>
<path d="M490.24 352.81C464.09 358.004 414.855 356.886 393.573 356.098C401.374 325.946 439.409 336.198 439.409 336.198C486.489 326.063 490.096 347.091 490.24 352.81Z" fill="#4EAC77"/>
<path d="M629.054 485.739C629.054 485.739 659.857 480.633 660.462 495.222C661.066 509.812 644.753 520.005 644.753 520.005L629.054 485.739Z" fill="#FBBEBE"/>
<path opacity="0.1" d="M474.27 319.546C472.945 320.185 471.591 320.75 470.212 321.239C460.492 324.857 450.69 328.504 440.455 329.827C430.22 331.15 419.481 329.983 410.553 324.478C409.616 323.907 408.712 323.273 407.848 322.581C406.856 301.183 404.467 280.272 404.467 280.272C404.467 280.272 482.918 240.394 473.9 272.005C470.312 284.775 471.529 302.71 474.27 319.546Z" fill="black"/>
<path d="M426.685 186.676C425.398 187.043 424.05 187.08 422.747 186.784C421.445 186.489 420.224 185.869 419.183 184.974L421.059 187.785C419.953 187.922 418.833 187.798 417.777 187.42C416.721 187.042 415.755 186.42 414.945 185.596C414.775 188.113 414.872 190.642 415.233 193.134C412.13 193.296 409.074 192.262 406.613 190.216C406.565 191.094 406.767 191.966 407.193 192.716C407.618 193.465 408.247 194.056 408.993 194.408C405.876 194.007 402.729 194.842 400.141 196.759C397.552 198.676 395.699 201.543 394.926 204.825L399.633 205.292C395.934 206.144 392.614 208.329 390.219 211.488C388.776 213.433 387.676 215.923 388.307 218.296C388.939 220.669 391.987 222.187 393.646 220.494C391.286 223.533 389.57 227.091 388.62 230.92C387.67 234.75 387.508 238.757 388.145 242.66C388.573 244.324 388.714 246.058 388.56 247.776C388.262 249.381 387.325 250.772 386.856 252.338C385.954 255.178 386.811 258.261 387.613 261.092L391.842 276.09C393.375 281.507 394.899 286.934 396.901 292.177C398.319 295.491 399.524 298.907 400.508 302.399C401.644 307.107 401.689 312.262 404.115 316.376C405.777 318.965 408 321.078 410.589 322.532C419.508 328.038 430.283 329.205 440.491 327.882C450.699 326.559 460.492 322.912 470.203 319.294C472.361 318.593 474.432 317.613 476.371 316.376C483.089 311.629 484.586 301.923 485.84 293.373C487.237 283.841 489.104 274.329 492.413 265.361C494.379 260.022 496.922 254.604 496.489 248.885C495.939 241.289 490.366 235.132 488.987 227.663C488.525 225.166 488.546 222.593 489.05 220.105C489.478 218.623 489.717 217.085 489.762 215.534C489.609 212.402 487.228 209.99 484.992 207.977C480.141 203.606 475.133 199.476 469.969 195.585C469.707 193.64 472.16 192.804 473.269 191.267C474.838 189.098 473.215 185.655 470.835 184.643C468.454 183.632 465.785 184.293 463.305 184.964C463.467 183.595 463.214 182.206 462.585 181.004C461.956 179.803 460.985 178.852 459.815 178.293C458.644 177.735 457.338 177.599 456.091 177.905C454.843 178.212 453.721 178.944 452.89 179.994C452.231 178.365 451.179 176.957 449.844 175.917C448.508 174.877 446.938 174.242 445.297 174.081C439.319 173.575 439.202 178.506 435.378 181.22C431.555 183.933 428.399 180.354 425.459 177.747C424.919 179.221 424.748 180.822 424.963 182.389C425.179 183.956 425.773 185.435 426.685 186.676V186.676Z" fill="#3F3D56"/>
<path d="M651.895 514.918C651.895 514.918 651.093 516.98 649.614 519.966C647.377 524.56 644.653 528.858 641.498 532.775L641.254 533.057H639.794L587.727 533.573H586.483L586.33 533.378L576.23 520.452L572.425 515.579L572.271 515.375L571.947 514.966L571.766 514.733L571.532 514.431L564.129 504.958L566.834 492.8L571.442 472.317L571.559 471.821L572.461 467.93L573.101 465.012L575.247 455.5L582.605 422.771L595.681 430.066L609.468 456.327L616.871 470.43H620.929C621.696 470.43 623.454 472.025 625.222 473.863C625.853 474.515 626.484 475.205 627.025 475.808C628.63 477.598 629.902 479.135 629.902 479.135C629.902 479.135 636.475 479.29 638.243 484.873C638.334 485.144 638.409 485.42 638.468 485.7C639.055 487.895 639.818 490.029 640.75 492.081C641.913 494.814 643.374 497.916 644.852 501.019C647.603 506.709 650.398 512.126 651.426 514.091L651.552 514.334L651.895 514.918Z" fill="#4EAC77"/>
<path opacity="0.1" d="M574.436 471.004L574.345 472.395V472.492L574.192 474.729L572.993 492.732L571.541 514.422L571.126 520.53L570.224 533.602V533.767L473.738 534.74L315.402 536.588V537.405H315.275V536.588V536.316L315.681 522.349L316.457 495.057L317.124 471.918L317.187 469.613C317.227 468.222 317.528 466.854 318.075 465.592C318.621 464.331 319.399 463.203 320.363 462.277C321.327 461.352 322.455 460.648 323.68 460.208C324.904 459.769 326.199 459.603 327.485 459.721C331.741 460.11 337.269 460.587 343.879 461.093L346.584 461.307C384.754 464.166 455.298 467.862 526.481 463.252C527.978 463.164 529.484 463.067 530.99 462.95C542.027 462.202 553.055 461.239 563.975 460.033C565.356 459.877 566.751 460.049 568.063 460.537C569.375 461.026 570.572 461.819 571.569 462.86C572.567 463.901 573.34 465.166 573.835 466.565C574.33 467.963 574.535 469.462 574.436 470.955V471.004Z" fill="black"/>
<path d="M315.375 537.405V536.588L473.738 534.73L570.224 533.758H570.495V533.592L571.397 520.52L571.784 514.684L573.263 492.693L574.426 475.283V474.855C574.48 474.053 574.447 473.247 574.327 472.453C574.332 472.421 574.332 472.388 574.327 472.356C574.08 470.714 573.46 469.164 572.524 467.843C571.531 466.469 570.23 465.391 568.744 464.711C567.258 464.03 565.635 463.769 564.029 463.952C553.109 465.158 542.081 466.121 531.044 466.87C529.538 466.987 528.032 467.084 526.535 467.172C455.352 471.733 384.809 468.037 346.638 465.226L343.933 465.012C337.323 464.507 331.795 464.04 327.539 463.641C325.198 463.428 322.866 464.158 320.994 465.69C319.123 467.222 317.843 469.448 317.404 471.937C317.313 472.464 317.258 472.997 317.241 473.533L316.628 495.086L315.789 522.388L315.393 536.354V536.627V537.444L315.375 537.405Z" fill="#3F3D56"/>
<path opacity="0.1" d="M574.706 477.822L573.597 492.732L571.947 514.957L571.532 520.52L570.63 532.979L570.576 533.602V533.767L570.441 535.207L570.54 533.767H570.278L473.792 534.74L315.402 536.588V536.316L315.843 522.349L316.745 495.057L317.322 476.917C317.351 475.885 317.618 474.878 318.1 473.986C318.582 473.094 319.263 472.346 320.082 471.811C321.103 471.136 322.297 470.829 323.49 470.936C325.384 471.101 327.71 471.296 330.425 471.51C334.834 471.86 340.272 472.268 346.602 472.696C358.324 473.494 373.032 474.35 389.885 475.05C436.776 476.995 500.078 477.647 560.206 471.967C562.911 471.714 565.707 471.432 568.439 471.15C569.52 471.033 570.61 471.256 571.577 471.792C571.851 471.939 572.111 472.115 572.352 472.317C573.137 472.93 573.759 473.755 574.156 474.709C574.248 474.899 574.323 475.098 574.381 475.303C574.652 476.109 574.763 476.967 574.706 477.822V477.822Z" fill="black"/>
<path opacity="0.1" d="M268.809 491.137V494.24C268.809 495.368 268.513 496.473 267.954 497.427C267.396 498.381 266.598 499.144 265.653 499.628L229.493 500.377C228.531 499.902 227.717 499.138 227.146 498.178C226.575 497.217 226.273 496.1 226.274 494.959V492.042L268.809 491.137Z" fill="black"/>
<path d="M269.26 501.457L222.144 502.429V493.997L269.26 493.024V501.457Z" fill="#3F3D56"/>
<path opacity="0.1" d="M269.26 501.457L222.144 502.429V493.997L269.26 493.024V501.457Z" fill="black"/>
<path d="M271.063 501.457L223.947 502.429V493.997L271.063 493.024V501.457Z" fill="#3F3D56"/>
<g opacity="0.1">
<path opacity="0.1" d="M427.055 183.486C426.174 182.251 425.589 180.801 425.351 179.265C425.134 180.767 425.264 182.304 425.73 183.739C426.177 183.694 426.621 183.61 427.055 183.486Z" fill="black"/>
<path opacity="0.1" d="M415.603 189.944C415.433 188.752 415.322 187.55 415.269 186.345C415.269 187.542 415.269 188.748 415.269 189.954L415.603 189.944Z" fill="black"/>
<path opacity="0.1" d="M489.095 222.401C489.145 221.534 489.253 220.673 489.419 219.823C489.846 218.344 490.089 216.81 490.141 215.262C490.121 214.914 490.072 214.569 489.997 214.231C489.843 215.125 489.6 216.02 489.419 216.905C489.059 218.71 488.95 220.562 489.095 222.401Z" fill="black"/>
<path opacity="0.1" d="M470.339 192.346L471.322 193.115C472.15 192.468 472.926 191.746 473.639 190.956C473.979 190.449 474.189 189.856 474.249 189.235C474.309 188.614 474.217 187.986 473.982 187.415C473.892 187.637 473.777 187.846 473.639 188.038C472.53 189.574 470.077 190.421 470.339 192.346Z" fill="black"/>
<path opacity="0.1" d="M396.243 201.703C395.914 202.412 395.651 203.155 395.458 203.921C396.869 203.071 398.388 202.452 399.967 202.082L396.243 201.703Z" fill="black"/>
<path opacity="0.1" d="M408.678 191.121C408.085 190.769 407.519 190.369 406.982 189.925C406.96 190.309 406.987 190.696 407.064 191.072C407.602 191.045 408.142 191.061 408.678 191.121V191.121Z" fill="black"/>
<path opacity="0.1" d="M496.841 248.428C496.471 253.145 494.433 257.687 492.783 262.162C489.474 271.129 487.607 280.641 486.209 290.183C484.956 298.732 483.504 308.439 476.741 313.176C474.809 314.421 472.74 315.401 470.582 316.094C460.861 319.722 451.059 323.359 440.825 324.682C430.59 326.005 419.85 324.847 410.923 319.342C408.335 317.885 406.113 315.773 404.449 313.185C402.041 309.071 401.996 303.916 400.842 299.209C399.857 295.713 398.652 292.295 397.235 288.977C395.242 283.744 393.709 278.278 392.185 272.899C390.772 267.9 389.362 262.898 387.956 257.892C387.492 256.386 387.149 254.84 386.928 253.272C386.576 255.762 387.261 258.368 387.956 260.81C389.362 265.822 390.772 270.824 392.185 275.817C393.709 281.235 395.242 286.662 397.235 291.895C398.652 295.212 399.857 298.631 400.842 302.127C401.978 306.834 402.023 311.989 404.449 316.103C406.113 318.691 408.335 320.803 410.923 322.26C419.85 327.765 430.617 328.923 440.825 327.6C451.032 326.277 460.825 322.639 470.582 319.012C472.74 318.319 474.809 317.339 476.741 316.094C483.459 311.357 484.956 301.65 486.209 293.101C487.607 283.559 489.474 274.047 492.783 265.079C494.749 259.749 497.292 254.332 496.859 248.603C496.859 248.545 496.841 248.486 496.841 248.428Z" fill="black"/>
<path opacity="0.1" d="M388.912 244.664C388.912 244.664 388.912 244.596 388.912 244.557C389.074 242.842 388.933 241.109 388.497 239.451C388.317 238.383 388.199 237.305 388.145 236.222C388.041 238.278 388.159 240.341 388.497 242.369C388.641 243.127 388.803 243.896 388.912 244.664Z" fill="black"/>
<path opacity="0.1" d="M391.662 220.874C392.355 219.617 393.142 218.423 394.015 217.304C392.365 219.006 389.317 217.489 388.677 215.125C388.441 216.081 388.441 217.087 388.677 218.043C388.899 218.757 389.292 219.395 389.816 219.892C390.341 220.389 390.977 220.727 391.662 220.874V220.874Z" fill="black"/>
</g>
<path opacity="0.1" d="M616.88 470.42C616.88 470.42 619.739 481.605 616.88 491.332C614.022 501.058 616.88 470.42 616.88 470.42Z" fill="black"/>
<path opacity="0.1" d="M629.054 481.829C629.054 481.829 630.253 496.029 627.548 498.549C624.843 501.068 629.054 481.829 629.054 481.829Z" fill="black"/>
<path d="M179.437 333.474L271.063 332.502" stroke="#4EAC77" stroke-width="2" stroke-miterlimit="10"/>
<path d="M179.437 345.603L271.063 344.64" stroke="#4EAC77" stroke-width="2" stroke-miterlimit="10"/>
<path d="M179.437 357.741L271.063 356.769" stroke="#4EAC77" stroke-width="2" stroke-miterlimit="10"/>
</g>
<defs>
<clipPath id="clip0">
<rect width="939" height="539" fill="white"/>
</clipPath>
</defs>
</svg>
