<svg width="1440" height="348" viewBox="0 0 1440 348" fill="none" xmlns="http://www.w3.org/2000/svg">
<path fill-rule="evenodd" clip-rule="evenodd" d="M-7 177L53.2917 169.625C113.583 162.25 234.167 147.5 354.75 154.875C475.333 162.25 595.917 191.75 716.5 228.625C837.083 265.5 957.667 309.75 1078.25 272.875C1198.83 236 1319.42 118 1379.71 59L1440 0V354H1379.71C1319.42 354 1198.83 354 1078.25 354C957.667 354 837.083 354 716.5 354C595.917 354 475.333 354 354.75 354C234.167 354 113.583 354 53.2917 354H-7V177Z" fill="#25262A"/>
</svg>
